<svg width="181" height="52" viewBox="0 0 181 52" fill="none" xmlns="http://www.w3.org/2000/svg"><path d="M179.624 46.003c0 2.771-2.292 5.016-5.126 5.016H6.756c-2.833 0-5.132-2.245-5.132-5.016v-40c0-2.77 2.3-5.022 5.132-5.022h167.741c2.835 0 5.125 2.252 5.125 5.022l.002 40z" fill="#fff"/><path d="M173.957 1.042c3.087 0 5.598 2.449 5.598 5.458v39c0 3.01-2.511 5.458-5.598 5.458H7.29c-3.086 0-5.598-2.448-5.598-5.458v-39c0-3.01 2.512-5.458 5.598-5.458h166.667zm0-1.042H7.29C3.625 0 .624 2.927.624 6.5v39c0 3.573 3.001 6.5 6.666 6.5h166.667c3.665 0 6.667-2.927 6.667-6.5v-39c0-3.573-3.002-6.5-6.667-6.5z" fill="#000"/><path d="M40.794 25.72c-.038-4.19 3.52-6.23 3.682-6.324-2.015-2.864-5.137-3.255-6.235-3.287-2.623-.269-5.166 1.53-6.503 1.53-1.362 0-3.42-1.503-5.637-1.46-2.853.044-5.523 1.654-6.986 4.155-3.022 5.1-.768 12.595 2.126 16.717 1.448 2.02 3.14 4.273 5.355 4.194 2.166-.087 2.976-1.347 5.59-1.347 2.591 0 3.351 1.347 5.61 1.296 2.325-.036 3.79-2.028 5.187-4.065 1.673-2.314 2.345-4.593 2.372-4.71-.055-.018-4.516-1.678-4.56-6.7zm-4.266-12.322c1.165-1.421 1.962-3.354 1.741-5.316-1.686.073-3.796 1.138-5.01 2.527-1.075 1.225-2.035 3.232-1.787 5.12 1.895.137 3.84-.932 5.056-2.331zM72.15 40.955h-3.028l-1.658-5.081h-5.766l-1.58 5.081H57.17l5.712-17.3h3.528l5.74 17.3zm-5.186-7.213l-1.5-4.518c-.159-.462-.456-1.548-.895-3.26h-.053c-.175.737-.456 1.824-.843 3.26L62.2 33.742h4.764zm19.876.823c0 2.121-.588 3.798-1.764 5.03-1.054 1.095-2.362 1.643-3.923 1.643-1.685 0-2.896-.59-3.633-1.771h-.054v6.572h-2.842V32.587c0-1.333-.036-2.702-.106-4.106h2.5l.16 1.977h.052c.948-1.49 2.387-2.233 4.318-2.233 1.51 0 2.77.58 3.777 1.744 1.01 1.165 1.515 2.696 1.515 4.596zm-2.896.101c0-1.214-.28-2.215-.843-3.003-.615-.822-1.44-1.232-2.475-1.232-.7 0-1.338.229-1.908.68a3.142 3.142 0 00-1.118 1.784 3.544 3.544 0 00-.132.845v2.08c0 .908.285 1.674.856 2.299.57.625 1.312.937 2.224.937 1.07 0 1.904-.403 2.5-1.206.597-.805.896-1.866.896-3.184zm17.612-.101c0 2.121-.588 3.798-1.766 5.03-1.052 1.095-2.36 1.643-3.92 1.643-1.686 0-2.897-.59-3.633-1.771h-.053v6.572H89.34V32.587c0-1.333-.036-2.702-.105-4.106h2.5l.158 1.977h.054c.946-1.49 2.385-2.233 4.317-2.233 1.508 0 2.768.58 3.779 1.744 1.006 1.165 1.512 2.696 1.512 4.596zm-2.896.101c0-1.214-.282-2.215-.844-3.003-.615-.822-1.438-1.232-2.474-1.232-.702 0-1.338.229-1.909.68a3.14 3.14 0 00-1.117 1.784c-.087.344-.132.624-.132.845v2.08c0 .908.285 1.674.853 2.299.57.624 1.312.937 2.227.937 1.07 0 1.904-.403 2.5-1.206.597-.805.896-1.866.896-3.184zm19.349 1.438c0 1.471-.524 2.669-1.576 3.593-1.156 1.01-2.765 1.514-4.833 1.514-1.91 0-3.44-.358-4.599-1.077l.659-2.31a7.95 7.95 0 004.109 1.105c1.071 0 1.904-.237 2.503-.708.596-.47.893-1.102.893-1.89 0-.702-.245-1.293-.737-1.773-.49-.48-1.307-.926-2.448-1.338-3.107-1.13-4.659-2.784-4.659-4.96 0-1.423.544-2.589 1.633-3.496 1.086-.909 2.534-1.363 4.344-1.363 1.615 0 2.956.275 4.027.822l-.711 2.26c-1-.531-2.13-.796-3.396-.796-1 0-1.781.24-2.341.719-.473.427-.711.949-.711 1.566 0 .684.271 1.25.815 1.694.473.41 1.333.855 2.581 1.335 1.527.6 2.648 1.3 3.37 2.104.718.8 1.077 1.803 1.077 2.999zm9.399-5.544h-3.134v6.057c0 1.54.552 2.31 1.659 2.31.508 0 .929-.043 1.263-.129l.078 2.105c-.56.204-1.297.307-2.21.307-1.123 0-2-.334-2.634-1.001-.63-.668-.948-1.789-.948-3.363v-6.288h-1.866v-2.08h1.866v-2.284l2.792-.822v3.106h3.134v2.082zm14.137 4.055c0 1.918-.563 3.492-1.685 4.723-1.178 1.267-2.74 1.9-4.688 1.9-1.878 0-3.372-.608-4.487-1.822-1.115-1.214-1.672-2.747-1.672-4.594 0-1.933.573-3.517 1.724-4.748 1.148-1.232 2.697-1.848 4.645-1.848 1.878 0 3.388.607 4.528 1.822 1.091 1.18 1.635 2.702 1.635 4.567zm-2.949.09c0-1.15-.252-2.137-.763-2.96-.596-.996-1.448-1.493-2.552-1.493-1.143 0-2.011.498-2.607 1.493-.51.824-.762 1.826-.762 3.012 0 1.15.252 2.137.762 2.959.615.995 1.474 1.492 2.582 1.492 1.085 0 1.937-.507 2.552-1.518.524-.839.788-1.836.788-2.985zm12.189-3.787a5.054 5.054 0 00-.896-.076c-1 0-1.773.367-2.317 1.105-.474.65-.711 1.471-.711 2.463v6.546h-2.841l.026-8.547c0-1.438-.036-2.747-.106-3.927h2.476l.104 2.387h.078c.3-.82.774-1.48 1.422-1.976a3.494 3.494 0 012.054-.668c.263 0 .5.018.711.05v2.643zm12.713 3.21c0 .496-.033.915-.104 1.257h-8.528c.034 1.232.446 2.175 1.238 2.825.718.581 1.648.872 2.789.872 1.263 0 2.415-.196 3.451-.59l.445 1.924c-1.211.515-2.64.77-4.289.77-1.984 0-3.542-.569-4.675-1.706-1.131-1.137-1.697-2.665-1.697-4.581 0-1.881.526-3.448 1.581-4.697 1.104-1.334 2.596-2 4.473-2 1.844 0 3.24.666 4.188 2 .751 1.06 1.128 2.37 1.128 3.926zm-2.71-.719c.018-.822-.167-1.531-.552-2.13-.492-.772-1.248-1.156-2.266-1.156-.929 0-1.685.375-2.262 1.13-.474.599-.755 1.318-.842 2.155h5.922v.001zM66.024 13.012c0 1.53-.47 2.682-1.41 3.455-.872.714-2.109 1.071-3.712 1.071a17.64 17.64 0 01-2.044-.101v-8.36a15.463 15.463 0 012.407-.177c1.527 0 2.677.324 3.453.971.87.732 1.306 1.778 1.306 3.14zm-1.474.037c0-.991-.269-1.752-.808-2.282-.538-.53-1.325-.795-2.36-.795-.44 0-.816.029-1.126.089v6.355c.172.026.486.038.944.038 1.07 0 1.894-.29 2.476-.87.581-.58.874-1.424.874-2.534zm9.286 1.299c0 .943-.276 1.715-.828 2.32-.579.623-1.346.934-2.303.934-.923 0-1.657-.298-2.205-.896-.547-.596-.82-1.349-.82-2.256 0-.95.281-1.728.846-2.333.566-.604 1.326-.907 2.283-.907.923 0 1.664.298 2.225.894.534.58.802 1.329.802 2.244zm-1.45.044c0-.565-.125-1.05-.374-1.454-.294-.49-.711-.734-1.254-.734-.561 0-.988.245-1.281.734-.25.404-.375.897-.375 1.48 0 .565.126 1.05.375 1.454.303.489.724.733 1.268.733.533 0 .952-.248 1.253-.746.259-.412.388-.901.388-1.467zm11.924-3.057l-1.966 6.128h-1.28l-.815-2.66a19.508 19.508 0 01-.505-1.98h-.026c-.12.673-.289 1.332-.505 1.98l-.865 2.66h-1.295l-1.85-6.128h1.437l.71 2.913c.172.69.314 1.346.427 1.967h.025c.104-.512.276-1.165.52-1.954l.891-2.925h1.139l.854 2.863c.207.698.375 1.37.504 2.018h.04c.094-.631.236-1.303.426-2.018l.762-2.863h1.372v-.001zm7.244 6.128h-1.397v-3.51c0-1.082-.421-1.622-1.267-1.622-.414 0-.749.148-1.009.446a1.559 1.559 0 00-.388 1.05v3.635h-1.397v-4.376c0-.538-.018-1.122-.051-1.754h1.228l.065.958h.039c.163-.297.405-.543.724-.74a2.407 2.407 0 011.267-.344c.586 0 1.074.185 1.462.555.483.454.724 1.131.724 2.03v3.672zm3.854 0h-1.396v-8.94h1.396v8.94zm8.226-3.115c0 .943-.276 1.715-.828 2.32-.578.623-1.346.934-2.302.934-.924 0-1.659-.298-2.206-.896-.546-.596-.82-1.349-.82-2.256 0-.95.282-1.728.847-2.333.565-.604 1.325-.907 2.281-.907.924 0 1.664.298 2.227.894.533.58.801 1.329.801 2.244zm-1.45.044c0-.565-.126-1.05-.375-1.454-.292-.49-.711-.734-1.252-.734-.563 0-.99.245-1.281.734-.25.404-.375.897-.375 1.48 0 .565.125 1.05.375 1.454.302.489.724.733 1.268.733.533 0 .95-.248 1.252-.746.26-.412.388-.901.388-1.467zm8.213 3.071h-1.255l-.104-.706H109c-.43.563-1.042.845-1.836.845-.594 0-1.074-.186-1.435-.555-.328-.335-.492-.753-.492-1.248 0-.749.32-1.32.964-1.715.643-.395 1.547-.589 2.711-.58v-.114c0-.807-.435-1.21-1.306-1.21-.62 0-1.166.152-1.638.454l-.284-.895c.584-.352 1.305-.529 2.156-.529 1.642 0 2.466.845 2.466 2.535v2.257c0 .612.031 1.1.091 1.461zm-1.451-2.106v-.945c-1.541-.026-2.312.386-2.312 1.235 0 .32.088.559.268.719.18.16.41.239.683.239.307 0 .593-.095.855-.283a1.161 1.161 0 00.506-.965zm9.391 2.106h-1.24l-.065-.984h-.039c-.396.749-1.071 1.123-2.019 1.123-.757 0-1.388-.29-1.888-.87-.5-.58-.749-1.332-.749-2.256 0-.992.271-1.796.815-2.41.526-.571 1.172-.857 1.94-.857.844 0 1.434.277 1.77.832h.027V8.523h1.399v7.289c0 .597.016 1.147.049 1.651zm-1.448-2.584v-1.022c0-.177-.013-.32-.039-.43a1.542 1.542 0 00-.505-.825 1.394 1.394 0 00-.935-.334c-.521 0-.929.202-1.229.606-.297.404-.448.92-.448 1.55 0 .607.143 1.098.429 1.476.303.403.711.605 1.222.605.458 0 .825-.168 1.104-.505.269-.31.401-.685.401-1.121zm13.399-.531c0 .943-.276 1.715-.828 2.32-.579.623-1.344.934-2.303.934-.921 0-1.656-.298-2.205-.896-.547-.596-.82-1.349-.82-2.256 0-.95.281-1.728.846-2.333.566-.604 1.326-.907 2.284-.907.922 0 1.664.298 2.224.894.534.58.802 1.329.802 2.244zm-1.448.044c0-.565-.126-1.05-.375-1.454-.295-.49-.711-.734-1.255-.734-.56 0-.986.245-1.281.734-.251.404-.375.897-.375 1.48 0 .565.126 1.05.375 1.454.303.489.724.733 1.268.733.533 0 .953-.248 1.255-.746.257-.412.388-.901.388-1.467zm8.961 3.071h-1.396v-3.51c0-1.082-.421-1.622-1.268-1.622-.415 0-.749.148-1.008.446a1.55 1.55 0 00-.388 1.05v3.635h-1.399v-4.376c0-.538-.016-1.122-.049-1.754h1.227l.065.958h.039c.164-.297.406-.543.724-.74a2.41 2.41 0 011.268-.344c.585 0 1.073.185 1.461.555.484.454.724 1.131.724 2.03v3.672zm9.404-5.108h-1.539v2.977c0 .757.274 1.135.815 1.135.251 0 .459-.02.623-.063l.036 1.033c-.276.101-.639.152-1.086.152-.552 0-.981-.164-1.292-.491-.312-.328-.466-.88-.466-1.653v-3.09h-.919v-1.02h.919v-1.123l1.369-.403v1.525h1.539v1.021h.001zm7.397 5.108h-1.398v-3.484c0-1.098-.422-1.648-1.266-1.648-.648 0-1.09.318-1.333.955a1.684 1.684 0 00-.065.49v3.686h-1.396v-8.94h1.396v3.694h.026c.44-.672 1.071-1.007 1.888-1.007.579 0 1.058.184 1.438.555.473.461.71 1.148.71 2.055v3.644zm7.631-3.354c0 .244-.019.45-.052.617h-4.191c.019.606.219 1.068.607 1.387.355.287.812.43 1.372.43a4.74 4.74 0 001.695-.29l.218.946c-.596.252-1.297.378-2.109.378-.973 0-1.74-.28-2.295-.838-.557-.56-.833-1.31-.833-2.25 0-.925.257-1.694.776-2.308.541-.655 1.273-.983 2.197-.983.904 0 1.591.328 2.055.983.375.52.56 1.164.56 1.928zm-1.333-.352c.01-.405-.082-.753-.271-1.047-.243-.378-.612-.568-1.112-.568-.456 0-.828.185-1.112.555a2.038 2.038 0 00-.415 1.06h2.91z" fill="#000"/></svg>