<?xml version="1.0" encoding="UTF-8"?>
<svg width="156px" height="52px" viewBox="0 0 156 52" version="1.1" xmlns="http://www.w3.org/2000/svg" xmlns:xlink="http://www.w3.org/1999/xlink">
    <!-- Generator: Sketch 51.3 (57544) - http://www.bohemiancoding.com/sketch -->
    <title>App Store Badge US White</title>
    <desc>Created with Sketch.</desc>
    <defs></defs>
    <g id="Main-page" stroke="none" stroke-width="1" fill="none" fill-rule="evenodd">
        <g id="Main" transform="translate(-128.000000, -437.000000)" fill-rule="nonzero">
            <g id="Buttons" transform="translate(128.000000, 437.000000)">
                <g id="App-Store-Badge-US-White">
                    <path d="M143.175201,-1.30700572e-16 L12.395084,-1.30700572e-16 C11.918374,-1.30700572e-16 11.447384,-1.30700572e-16 10.971935,0.0026 C10.57394,0.0052 10.179117,0.012753 9.7773,0.01911 C8.90436778,0.0293823447 8.03348841,0.106179138 7.17223,0.248833 C6.31218131,0.394592416 5.47907427,0.669390462 4.701086,1.063933 C3.92404923,1.46181322 3.21404852,1.97881779 2.596841,2.596191 C1.97639325,3.21182809 1.45920214,3.92342129 1.065155,4.703608 C0.670020314,5.48224186 0.396032648,6.31661978 0.252655,7.177924 C0.107914224,8.03814038 0.0300278948,8.90827671 0.019695,9.780524 C0.007631,10.179104 0.006357,10.57901 0,10.977642 L0,41.02618 C0.006357,41.42983 0.007631,41.82087 0.019695,42.22465 C0.0300310634,43.096854 0.107917393,43.9669469 0.252655,44.82712 C0.395636739,45.6889277 0.669640605,46.5237846 1.065155,47.30271 C1.45902322,48.0803738 1.97628706,48.7890861 2.596841,49.4013 C3.21170827,50.0214183 3.92216791,50.5387746 4.701086,50.93361 C5.47906836,51.3292085 6.31208558,51.6056422 7.17223,51.75365 C8.03363482,51.8951611 8.90442463,51.9719892 9.7773,51.98349 C10.179117,51.99233 10.57394,51.9974 10.971935,51.9974 C11.447371,52 11.9184,52 12.395084,52 L143.175201,52 C143.642421,52 144.117181,52 144.584401,51.9974 C144.980511,51.9974 145.386761,51.99233 145.782871,51.98349 C146.654096,51.9726008 147.523247,51.8957679 148.382871,51.75365 C149.24579,51.6046003 150.081794,51.3282398 150.863531,50.93361 C151.641747,50.538546 152.35155,50.0212038 152.965891,49.4013 C153.584844,48.7866884 154.103212,48.0784944 154.501971,47.30271 C154.894518,46.523218 155.165913,45.6884278 155.306801,44.82712 C155.45177,43.9668289 155.53242,43.0969295 155.548081,42.22465 C155.553151,41.82087 155.553151,41.42983 155.553151,41.02618 C155.563291,40.55389 155.563291,40.0842 155.563291,39.60424 L155.563291,12.396969 C155.563291,11.920896 155.563291,11.448632 155.553151,10.977642 C155.553151,10.57901 155.553151,10.179104 155.548081,9.780472 C155.532424,8.90814918 155.451774,8.03820637 155.306801,7.177872 C155.16552,6.31706608 154.894141,5.48275426 154.501971,4.703556 C153.699513,3.1397549 152.427045,1.86683302 150.863531,1.063816 C150.081792,0.670237594 149.245698,0.395512533 148.382871,0.248716 C147.523395,0.105433618 146.654154,0.0286100944 145.782871,0.018928 C145.386761,0.012584 144.980511,0.004966 144.584401,0.002431 C144.117181,-0.000169 143.642421,-0.000169 143.175201,-0.000169 L143.175201,-1.30700572e-16 Z" id="Background-Black" fill="#000000"></path>
                    <path d="M10.978279,50.8625 C10.582195,50.8625 10.195679,50.85743 9.802702,50.84859 C8.9886183,50.837983 8.17643732,50.7671126 7.37282,50.63656 C6.62348739,50.5075066 5.89758552,50.2674438 5.219058,49.92429 C4.54675222,49.5839795 3.93355529,49.1377547 3.402958,48.60271 C2.86468043,48.0739678 2.41653975,47.4607172 2.076295,46.78726 C1.73230104,46.1094259 1.49423675,45.3828694 1.370395,44.6329 C1.23665667,43.8270493 1.16429869,43.0122072 1.153945,42.1954 C1.145703,41.92123 1.134913,41.00837 1.134913,41.00837 L1.134913,10.977642 C1.134913,10.977642 1.146405,10.078809 1.15401,9.81474 C1.16392357,8.99922666 1.23586079,8.18564903 1.369199,7.381049 C1.49326934,6.6290251 1.73151793,5.90037353 2.075697,5.220319 C2.41469127,4.547327 2.86034396,3.93361838 3.395379,3.402984 C3.92981268,2.86730784 4.5449711,2.41878535 5.218421,2.073773 C5.89538907,1.73172168 6.61991908,1.49335231 7.367737,1.366651 C8.17399353,1.23478698 8.98899409,1.16349491 9.8059,1.153373 L10.978916,1.1375 L144.578031,1.1375 L145.765061,1.15401 C146.574536,1.16362896 147.382133,1.23428501 148.180981,1.365377 C148.936369,1.49366759 149.66845,1.73370019 150.353151,2.077582 C151.702315,2.77288186 152.800104,3.87291183 153.492651,5.223491 C153.831336,5.89885083 154.06591,6.62155878 154.188411,7.367087 C154.323337,8.1782888 154.398851,8.99825984 154.414351,9.82046 C154.418121,10.18862 154.418121,10.58408 154.418121,10.977642 C154.428391,11.465142 154.428391,11.929151 154.428391,12.396969 L154.428391,39.60424 C154.428391,40.07653 154.428391,40.53738 154.418121,41.002 C154.418121,41.42476 154.418121,41.81203 154.413051,42.21061 C154.397887,43.0181384 154.323631,43.8234735 154.190881,44.62016 C154.069578,45.3755395 153.832809,46.1077671 153.488881,46.79116 C153.146231,47.4573075 152.700664,48.0652461 152.168601,48.59257 C151.637526,49.13049 151.023247,49.5793255 150.349381,49.92182 C149.666577,50.2676118 148.935574,50.5085624 148.180981,50.63656 C147.377424,50.7678093 146.565166,50.8386842 145.751021,50.84859 C145.370251,50.85743 144.971541,50.8625 144.584401,50.8625 L143.175201,50.8651 L10.978279,50.8625 Z" id="Background-White" fill="#FFFFFF"></path>
                    <path d="M54.992314,35.281545 L48.838894,35.281545 L47.361158,39.64493 L44.754814,39.64493 L50.583234,23.50153 L53.291134,23.50153 L59.119554,39.64493 L56.468776,39.64493 L54.992314,35.281545 Z M49.476206,33.268066 L54.353806,33.268066 L51.9493,26.186615 L51.88196,26.186615 L49.476206,33.268066 Z M71.70696,33.760649 C71.70696,37.418173 69.749342,39.768066 66.795144,39.768066 C65.2681448,39.847944 63.8297951,39.0481399 63.091925,37.708866 L63.036025,37.708866 L63.036025,43.53856 L60.620105,43.53856 L60.620105,27.875094 L62.958584,27.875094 L62.958584,29.832712 L63.003018,29.832712 C63.7736688,28.5018343 65.2135695,27.7023745 66.750671,27.751945 C69.737915,27.751958 71.70696,30.113278 71.70696,33.760649 Z M69.223752,33.760649 C69.223752,31.377749 67.992301,29.811132 66.113398,29.811132 C64.267502,29.811132 63.025898,31.410743 63.025898,33.760649 C63.025898,36.132135 64.267502,37.720319 66.113398,37.720319 C67.992314,37.720319 69.2237,36.165142 69.2237,33.760649 L69.223752,33.760649 Z M84.661889,33.760649 C84.661889,37.418173 82.703634,39.768066 79.749436,39.768066 C78.2224368,39.847944 76.7840871,39.0481399 76.046217,37.708866 L75.990317,37.708866 L75.990317,43.53856 L73.574397,43.53856 L73.574397,27.875094 L75.912876,27.875094 L75.912876,29.832712 L75.95731,29.832712 C76.7279608,28.5018343 78.1678615,27.7023745 79.704963,27.751945 C82.69222,27.751958 84.661889,30.113278 84.661889,33.760649 Z M82.178057,33.760649 C82.178057,31.377749 80.946606,29.811132 79.067703,29.811132 C77.221807,29.811132 75.980203,31.410743 75.980203,33.760649 C75.980203,36.132135 77.221807,37.720319 79.067703,37.720319 C80.946606,37.720319 82.178057,36.165142 82.178057,33.760649 Z M93.222337,35.146969 C93.401347,36.747854 94.956537,37.798969 97.081712,37.798969 C99.118045,37.798969 100.58308,36.747802 100.58308,35.304334 C100.58308,34.051303 99.699483,33.301034 97.607302,32.786858 L95.515121,32.282848 C92.55077,31.566834 91.17459,30.180501 91.17459,27.93089 C91.17459,25.145536 93.601937,23.232352 97.047444,23.232352 C100.459944,23.232352 102.798423,25.145536 102.877138,27.93089 L100.438338,27.93089 C100.292348,26.319852 98.960602,25.3474 97.014411,25.3474 C95.06822,25.3474 93.736487,26.331292 93.736487,27.76332 C93.736487,28.904629 94.587077,29.576209 96.667831,30.09032 L98.446439,30.527042 C101.758644,31.310344 103.13355,32.640842 103.13355,35.002136 C103.13355,38.022348 100.729057,39.913952 96.90265,39.913952 C93.322567,39.913952 90.905386,38.066782 90.74923,35.146852 L93.222337,35.146969 Z M108.350073,25.08974 L108.350073,27.875094 L110.588257,27.875094 L110.588257,29.788278 L108.350073,29.788278 L108.350073,36.276851 C108.350073,37.284858 108.798222,37.754587 109.782101,37.754587 C110.04781,37.7499537 110.313089,37.7312944 110.57683,37.698687 L110.57683,39.600444 C110.134477,39.6830974 109.684862,39.7205308 109.234931,39.712166 C106.852031,39.712166 105.922726,38.817142 105.922726,36.534524 L105.922726,29.788278 L104.211406,29.788278 L104.211406,27.875094 L105.9227,27.875094 L105.9227,25.08974 L108.350073,25.08974 Z M111.8832,33.760649 C111.8832,30.05743 114.064249,27.730378 117.465335,27.730378 C120.877835,27.730378 123.048731,30.057378 123.048731,33.760649 C123.048731,37.474034 120.889262,39.79092 117.465335,39.79092 C114.042656,39.79092 111.8832,37.474021 111.8832,33.760649 Z M120.587103,33.760649 C120.587103,31.220319 119.42294,29.721003 117.465322,29.721003 C115.507704,29.721003 114.343541,31.231746 114.343541,33.760649 C114.343541,36.311132 115.507704,37.799034 117.465322,37.799034 C119.42294,37.799034 120.58709,36.311132 120.58709,33.760649 L120.587103,33.760649 Z M125.040604,27.875094 L127.344802,27.875094 L127.344802,29.878394 L127.400702,29.878394 C127.722031,28.5887789 128.903674,27.701221 130.231751,27.751932 C130.510164,27.7509599 130.787809,27.781196 131.059487,27.842074 L131.059487,30.101838 C130.708007,29.9944363 130.341353,29.9451247 129.973987,29.955848 C129.26373,29.9270341 128.576358,30.2100951 128.092356,30.7307078 C127.608354,31.2513204 127.376076,31.957472 127.456511,32.663748 L127.456511,39.644904 L125.040591,39.644904 L125.040604,27.875094 Z M142.198316,36.187983 C141.873316,38.324598 139.792549,39.790907 137.130344,39.790907 C133.706417,39.790907 131.581229,37.496862 131.581229,33.816497 C131.581229,30.124705 133.717844,27.730365 137.028788,27.730365 C140.285132,27.730365 142.332892,29.967275 142.332892,33.535931 L142.332892,34.363667 L134.020003,34.363667 L134.020003,34.509657 C133.94239,35.3858981 134.244957,36.2532553 134.850742,36.8911009 C135.456527,37.5289465 136.307142,37.8758033 137.186218,37.843442 C138.358613,37.9532915 139.463952,37.280071 139.904284,36.18797 L142.198316,36.187983 Z M134.031407,32.675201 L139.915698,32.675188 C139.959541,31.8878267 139.672931,31.11787 139.124921,30.550821 C138.576911,29.983772 137.817187,29.6710445 137.028788,29.687983 C136.234152,29.6832409 135.470544,29.996115 134.907689,30.5570632 C134.344834,31.1180114 134.029371,31.8805538 134.031407,32.675201 Z" id="App-Store" fill="#000000"></path>
                    <path d="M49.174047,11.3503 C50.1996775,11.2766994 51.2042599,11.6669117 51.9112897,12.4135334 C52.6183194,13.1601551 52.9532716,14.1844882 52.823953,15.204592 C52.823953,17.682717 51.484602,19.107192 49.174047,19.107192 L46.372196,19.107192 L46.372196,11.3503 L49.174047,11.3503 Z M47.576971,18.0102 L49.039471,18.0102 C49.7724395,18.0540126 50.4861325,17.7652267 50.9823841,17.2240273 C51.4786357,16.6828279 51.7046135,15.9468327 51.597572,15.2204 C51.6968257,14.4969819 51.4675936,13.7670601 50.9725724,13.2302742 C50.4775512,12.6934883 49.7685444,12.4060122 49.039471,12.446473 L47.576971,12.446473 L47.576971,18.0102 Z M54.184884,16.177642 C54.0845073,15.1283926 54.5876288,14.1129455 55.4832407,13.5571766 C56.3788526,13.0014076 57.5121064,13.0014076 58.4077183,13.5571766 C59.3033302,14.1129455 59.8064517,15.1283926 59.706075,16.177642 C59.8083615,17.2280189 59.3056993,18.2454355 58.4092932,18.8024009 C57.5128872,19.3593663 56.3780718,19.3593663 55.4816658,18.8024009 C54.5852597,18.2454355 54.0825975,17.2280189 54.184884,16.177642 Z M58.517784,16.177642 C58.517784,14.908751 57.94776,14.166711 56.947384,14.166711 C55.943186,14.166711 55.378284,14.908751 55.378284,16.177655 C55.378284,17.456712 55.943225,18.193032 56.947384,18.193032 C57.947786,18.193019 58.517797,17.451616 58.517797,16.177642 L58.517784,16.177642 Z M67.045238,19.107075 L65.846807,19.107075 L64.636949,14.795742 L64.545546,14.795742 L63.340758,19.107075 L62.153741,19.107075 L60.540168,13.253266 L61.711949,13.253266 L62.760581,17.720066 L62.846914,17.720066 L64.050428,13.253266 L65.15873,13.253266 L66.362244,17.720066 L66.453647,17.720066 L67.497196,13.253266 L68.652467,13.253266 L67.045238,19.107075 Z M70.009602,13.253266 L71.1217,13.253266 L71.1217,14.183195 L71.208033,14.183195 C71.5082483,13.4985213 72.2097647,13.0796997 72.954908,13.14027 C73.5318698,13.0968913 74.0972516,13.3182269 74.491418,13.7417827 C74.8855844,14.1653385 75.065761,14.7451509 74.981075,15.31751 L74.981075,19.10701 L73.825804,19.10701 L73.825804,15.607618 C73.825804,14.666899 73.417019,14.199068 72.56262,14.199068 C72.1712756,14.1808409 71.7914862,14.3344273 71.522821,14.6195618 C71.2541558,14.9046963 71.1234095,15.2929413 71.16486,15.682511 L71.16486,19.107075 L70.009589,19.107075 L70.009602,13.253266 Z M76.821901,10.9681 L77.977172,10.9681 L77.977172,19.107062 L76.821901,19.107062 L76.821901,10.9681 Z M79.583127,16.177642 C79.4828274,15.1283239 79.9860282,14.1128512 80.8817066,13.5570737 C81.777385,13.0012962 82.910697,13.0012962 83.8063754,13.5570737 C84.7020538,14.1128512 85.2052546,15.1283239 85.104955,16.177642 C85.2071116,17.2280565 84.7043572,18.2454443 83.8079067,18.8023852 C82.9114562,19.3593261 81.7766258,19.3593261 80.8801753,18.8023852 C79.9837248,18.2454443 79.4809704,17.2280565 79.583127,16.177642 Z M83.916027,16.177642 C83.916027,14.908751 83.346003,14.166711 82.345627,14.166711 C81.341429,14.166711 80.776527,14.908751 80.776527,16.177655 C80.776527,17.456712 81.341468,18.193032 82.345627,18.193032 C83.346016,18.193019 83.91604,17.451616 83.91604,16.177642 L83.916027,16.177642 Z M86.32117,17.451616 C86.32117,16.397901 87.105746,15.790437 88.49841,15.704104 L90.084059,15.612701 L90.084059,15.10743 C90.084059,14.489163 89.675274,14.140048 88.885628,14.140048 C88.240711,14.140048 87.793836,14.376817 87.665604,14.790685 L86.547149,14.790685 C86.665215,13.785213 87.611017,13.140296 88.938941,13.140296 C90.406524,13.140296 91.23426,13.870896 91.23426,15.10743 L91.23426,19.107088 L90.122149,19.107088 L90.122149,18.284435 L90.030746,18.284435 C89.6530292,18.8851992 88.9813257,19.2363122 88.272444,19.203535 C87.775501,19.2552254 87.2798825,19.0942839 86.9081146,18.7604982 C86.5363466,18.4267125 86.3231279,17.9512363 86.32117,17.451616 Z M90.084059,16.951415 L90.084059,16.462017 L88.654566,16.55342 C87.84841,16.60737 87.482785,16.881592 87.482785,17.397653 C87.482785,17.924504 87.939813,18.231096 88.568285,18.231096 C88.9403269,18.2687568 89.3117243,18.1538176 89.5974565,17.9125903 C89.8831887,17.671363 90.0587891,17.3245034 90.084059,16.951415 Z M92.752608,16.177642 C92.752608,14.327937 93.703493,13.156156 95.18249,13.156156 C95.9293098,13.1217452 96.6287758,13.5219147 96.977608,14.183156 L97.063941,14.183156 L97.063941,10.9681 L98.219212,10.9681 L98.219212,19.107062 L97.112184,19.107062 L97.112184,18.182203 L97.020781,18.182203 C96.6455804,18.8379581 95.9374969,19.2313634 95.182503,19.203535 C93.69334,19.2036 92.752608,18.031793 92.752608,16.177642 Z M93.946008,16.177642 C93.946008,17.419246 94.531268,18.166369 95.510077,18.166369 C96.483777,18.166369 97.08556,17.408469 97.08556,16.182725 C97.08556,14.962701 96.477459,14.193998 95.510077,14.193998 C94.537573,14.193998 93.945969,14.946191 93.945969,16.177642 L93.946008,16.177642 Z M102.999,16.177642 C102.898623,15.1283926 103.401745,14.1129455 104.297357,13.5571766 C105.192969,13.0014076 106.326222,13.0014076 107.221834,13.5571766 C108.117446,14.1129455 108.620568,15.1283926 108.520191,16.177642 C108.622478,17.2280189 108.119815,18.2454355 107.223409,18.8024009 C106.327003,19.3593663 105.192188,19.3593663 104.295782,18.8024009 C103.399376,18.2454355 102.896713,17.2280189 102.999,16.177642 Z M107.3319,16.177642 C107.3319,14.908751 106.761876,14.166711 105.7615,14.166711 C104.757302,14.166711 104.1924,14.908751 104.1924,16.177655 C104.1924,17.456712 104.757341,18.193032 105.7615,18.193032 C106.761889,18.193019 107.3319,17.451616 107.3319,16.177642 Z M110.070285,13.253266 L111.182396,13.253266 L111.182396,14.183195 L111.268729,14.183195 C111.568944,13.4985213 112.270461,13.0796997 113.015604,13.14027 C113.592566,13.0968913 114.157948,13.3182269 114.552114,13.7417827 C114.94628,14.1653385 115.126457,14.7451509 115.041771,15.31751 L115.041771,19.10701 L113.8865,19.10701 L113.8865,15.607618 C113.8865,14.666899 113.477715,14.199068 112.623316,14.199068 C112.231972,14.1808409 111.852182,14.3344273 111.583517,14.6195618 C111.314852,14.9046963 111.184106,15.2929413 111.225556,15.682511 L111.225556,19.107075 L110.070285,19.107075 L110.070285,13.253266 Z M121.569708,11.795849 L121.569708,13.279929 L122.837975,13.279929 L122.837975,14.253031 L121.569708,14.253031 L121.569708,17.26309 C121.569708,17.876274 121.82235,18.144776 122.397444,18.144776 C122.544676,18.1443048 122.691761,18.1354026 122.837975,18.118113 L122.837975,19.080412 C122.630507,19.1175279 122.420305,19.1372741 122.209555,19.139445 C120.924791,19.139445 120.413163,18.687487 120.413163,17.558879 L120.413163,14.252979 L119.483871,14.252979 L119.483871,13.279877 L120.413163,13.279877 L120.413163,11.795849 L121.569708,11.795849 Z M124.415993,10.9681 L125.561111,10.9681 L125.561111,14.193985 L125.652514,14.193985 C125.96715,13.5033191 126.680944,13.0839638 127.437414,13.145353 C128.0111,13.1141365 128.568828,13.3403448 128.958686,13.762364 C129.348544,14.1843832 129.529926,14.7582573 129.453428,15.327676 L129.453428,19.107075 L128.297,19.107075 L128.297,15.612675 C128.297,14.677663 127.8615,14.204125 127.045243,14.204125 C126.643321,14.1711618 126.247341,14.3172782 125.963165,14.6034116 C125.678989,14.8895449 125.535594,15.2865184 125.571316,15.688205 L125.571316,19.107049 L124.416045,19.107049 L124.415993,10.9681 Z M136.189625,17.526509 C135.865674,18.6307023 134.797129,19.3441339 133.653104,19.220058 C132.872537,19.2406633 132.122369,18.9171199 131.601637,18.3352717 C131.080905,17.7534235 130.842252,16.9720927 130.949,16.198585 C130.845088,15.4229276 131.082846,14.6403449 131.600678,14.053581 C132.11851,13.4668172 132.865463,13.1336098 133.648021,13.140283 C135.27683,13.140283 136.259448,14.253083 136.259448,16.091283 L136.259448,16.4944 L132.125851,16.4944 L132.125851,16.55914 C132.089272,16.9935222 132.237626,17.4231821 132.534429,17.7424529 C132.831232,18.0617237 133.248944,18.2409811 133.684837,18.23614 C134.25004,18.3039931 134.800227,18.023633 135.077514,17.52647 L136.189625,17.526509 Z M132.125825,15.639988 L135.082558,15.639988 C135.112007,15.2427086 134.972316,14.8514666 134.69791,14.5626768 C134.423504,14.273887 134.039903,14.1144071 133.641638,14.123538 C133.237978,14.1184666 132.849376,14.2766276 132.563985,14.5621435 C132.278594,14.8476595 132.120603,15.2363299 132.125851,15.639988 L132.125825,15.639988 Z" id="Download-on-the" fill="#000000"></path>
                    <path d="M32.495723,25.856155 C32.5252723,23.5627555 33.727603,21.4443527 35.681477,20.243132 C34.4432665,18.4747498 32.4436964,17.3937537 30.28597,17.326244 C28.015858,17.087954 25.815101,18.68464 24.65827,18.68464 C23.479079,18.68464 21.698001,17.349904 19.780059,17.389359 C17.2565629,17.4708886 14.961011,18.8708615 13.733278,21.077069 C11.118835,25.603669 13.068978,32.256276 15.573441,35.915269 C16.826485,37.706968 18.290922,39.708331 20.207135,39.637364 C22.082255,39.559585 22.782578,38.441663 25.045995,38.441663 C27.288417,38.441663 27.94545,39.637364 29.900546,39.592241 C31.912647,39.559585 33.180342,37.792586 34.389446,35.983922 C35.2897569,34.7072745 35.9825443,33.2963004 36.442146,31.803265 C34.0523861,30.7925143 32.4985042,28.4508731 32.495723,25.856155 Z M28.802943,14.919853 C29.9000273,13.6028558 30.4405215,11.9100736 30.309643,10.200996 C28.6335576,10.3770354 27.0853238,11.1780945 25.973428,12.444562 C24.8754805,13.6941039 24.3192633,15.3288401 24.427286,16.988712 C26.1258378,17.0061962 27.7385759,16.2436758 28.802943,14.919853 Z" id="Icon" fill="#000000"></path>
                </g>
            </g>
        </g>
    </g>
</svg>