<svg width="24" height="24" viewBox="0 0 24 24" fill="none" xmlns="http://www.w3.org/2000/svg">
<path fill-rule="evenodd" clip-rule="evenodd" d="M11.2511 0.0830312C9.17947 0.477765 7.62616 2.03879 7.30449 4.04931C7.23406 4.48946 7.24374 5.20244 7.32597 5.63605C7.51234 6.61847 7.90731 7.3762 8.61478 8.10869C9.22089 8.73619 9.9562 9.16505 10.8275 9.39919C11.2176 9.50403 11.3675 9.51921 12.0033 9.51827C12.6318 9.51729 12.7936 9.50074 13.1792 9.39806C14.7765 8.97281 16.0446 7.77573 16.5306 6.23436C16.8706 5.15589 16.8092 3.91899 16.3652 2.90498C15.787 1.5843 14.7035 0.634182 13.2962 0.213684C12.927 0.103388 12.7773 0.08557 12.1209 0.0739574C11.7072 0.0666231 11.3158 0.0707134 11.2511 0.0830312ZM14.0088 3.4819C14.1859 3.58994 14.2487 3.79891 14.1567 3.97447C14.1223 4.04005 13.5248 4.5597 12.8288 5.12933C11.6792 6.07009 11.5472 6.16497 11.3868 6.16497C11.1836 6.16497 11.1393 6.11809 10.5047 5.23215C10.0796 4.63873 10.041 4.50291 10.2408 4.3031C10.3365 4.20738 10.3967 4.18772 10.5582 4.19943C10.7474 4.21311 10.7718 4.23305 11.0396 4.59243C11.1947 4.80065 11.3551 5.02148 11.396 5.08321L11.4703 5.19534L12.5028 4.34804C13.0707 3.88204 13.5767 3.47672 13.6274 3.44734C13.7582 3.37146 13.8397 3.37884 14.0088 3.4819ZM3.05635 9.65217C2.35034 10.8586 0.00788556 14.9316 8.11595e-05 14.9665C-0.0150575 15.0343 2.09265 16.2355 2.14131 16.1869C2.16552 16.1626 2.92354 14.8657 3.82584 13.3048C5.44093 10.5108 5.46481 10.4657 5.36627 10.3963C5.25141 10.3153 3.45137 9.27032 3.3681 9.23623C3.33661 9.2233 3.20313 9.40144 3.05635 9.65217ZM19.5962 9.83158C19.0273 10.1641 18.5676 10.4602 18.5746 10.4895C18.5925 10.5651 21.7834 16.0954 21.8521 16.17C21.8979 16.2198 22.1046 16.1182 22.9386 15.636C23.5051 15.3085 23.9825 15.027 23.9997 15.0104C24.0359 14.9753 20.7414 9.25636 20.6749 9.23873C20.6505 9.23224 20.1651 9.49904 19.5962 9.83158ZM9.6931 11.1812L8.97091 11.5429L7.81906 11.5761C7.18554 11.5943 6.45564 11.6118 6.19706 11.615L5.72692 11.6208L4.43985 13.8571C3.36307 15.7279 3.16336 16.1032 3.21747 16.1534C3.30054 16.2306 4.7476 17.0723 4.79725 17.0723C4.81784 17.0723 5.19274 16.7138 5.63039 16.2756C6.56034 15.3444 6.75677 15.222 7.32541 15.219C7.77759 15.2166 8.08911 15.3328 8.40519 15.6216C8.70853 15.8989 8.89532 16.2521 8.9333 16.6202C8.95911 16.8704 8.96734 16.8843 9.0901 16.8843C9.16132 16.8843 9.35817 16.9271 9.52752 16.9794C10.0992 17.156 10.5645 17.7186 10.6252 18.3067L10.6519 18.5648L10.901 18.5906C11.2187 18.6234 11.5184 18.7563 11.7535 18.9687C11.9361 19.1336 11.9414 19.1351 12.1238 19.0725C12.2256 19.0375 12.4061 18.9944 12.5249 18.9766L12.7409 18.9444L12.7978 18.6359C12.8635 18.2789 12.9391 18.1142 13.1655 17.8347C13.3809 17.5688 13.7344 17.3729 14.1244 17.3032L14.4412 17.2466L14.4723 17.0066C14.5338 16.5324 14.7898 16.1161 15.1778 15.8591L15.3883 15.7197L14.2176 14.8426C13.5737 14.3602 12.9763 13.9452 12.8898 13.9204C12.6325 13.8466 12.1059 13.8649 11.9571 13.9529C11.8786 13.9993 11.6878 14.2578 11.4827 14.596C10.9435 15.4845 10.7911 15.6157 10.3006 15.614C9.93471 15.6128 9.10782 15.4863 8.95902 15.4089C8.68018 15.2638 8.47726 14.9322 8.47726 14.6215C8.47726 14.4137 8.9995 12.4943 9.11878 12.2636C9.26184 11.987 9.55234 11.7761 10.2966 11.4087L11.0396 11.042L10.8045 10.9313C10.6752 10.8704 10.5348 10.8203 10.4923 10.82C10.45 10.8197 10.0903 10.9822 9.6931 11.1812ZM11.5059 11.7109C10.5561 12.1784 9.96315 12.4972 9.90439 12.5719C9.80425 12.6992 9.24473 14.6114 9.29339 14.6601C9.32319 14.6899 10.1116 14.811 10.2954 14.814C10.3761 14.8153 10.4693 14.697 10.742 14.2468C10.9315 13.934 11.1559 13.5967 11.2406 13.4974C11.4026 13.3075 11.7707 13.1086 12.0536 13.058C12.3058 13.0129 13.1288 13.1118 13.3301 13.2114C13.4263 13.2591 14.2711 13.8669 15.2074 14.5622C16.5785 15.5805 17.0342 15.9476 17.5498 16.4494C17.9018 16.792 18.203 17.0723 18.2189 17.0723C18.2584 17.0723 20.5169 15.7708 20.5707 15.717C20.5966 15.6911 20.1729 14.9117 19.5041 13.7547C18.8939 12.6991 18.3861 11.8268 18.3756 11.8163C18.3651 11.8059 18.17 11.8682 17.942 11.9548C17.5763 12.0938 17.4778 12.1117 17.1044 12.1071C16.6937 12.102 16.6319 12.0852 14.9895 11.5312C14.059 11.2172 13.2339 10.9623 13.156 10.9645C13.0744 10.9669 12.3734 11.284 11.5059 11.7109ZM6.89758 16.1735C6.79673 16.2481 6.3831 16.6448 5.9784 17.0551C5.39499 17.6465 5.23063 17.8415 5.18484 17.9963C4.97412 18.7087 5.746 19.2725 6.36791 18.8605C6.48366 18.7838 6.90858 18.3852 7.31215 17.9746C8.0924 17.1809 8.19353 17.0221 8.13058 16.689C8.05329 16.2798 7.76175 16.0385 7.34421 16.0382C7.12766 16.0381 7.0484 16.062 6.89758 16.1735ZM15.6668 16.521C15.3242 16.7519 15.1878 17.2038 15.3612 17.5331C15.398 17.6029 15.8053 18.0336 16.2662 18.4902C16.9473 19.1648 17.1397 19.3298 17.2925 19.3699C17.929 19.5373 18.4569 18.8978 18.191 18.2814C18.1087 18.0905 16.5389 16.5319 16.3609 16.4643C16.1369 16.3793 15.8412 16.4035 15.6668 16.521ZM8.78591 17.752C8.5649 17.8326 7.01798 19.3504 6.89696 19.6054C6.72898 19.9594 6.9247 20.4772 7.28309 20.6269C7.48502 20.7113 7.78911 20.7107 7.9507 20.6256C8.02052 20.5888 8.45112 20.1815 8.90759 19.7206C9.58356 19.0379 9.74853 18.8453 9.79658 18.6826C9.96941 18.0972 9.36513 17.5409 8.78591 17.752ZM13.9743 18.2136C13.6317 18.4444 13.4953 18.8963 13.6687 19.2256C13.7824 19.4414 15.398 21.011 15.5437 21.0473C15.7561 21.1001 16.1171 21.0447 16.2699 20.9359C16.3475 20.8806 16.4455 20.763 16.4874 20.6745C16.5752 20.4895 16.5879 20.1227 16.5117 19.9724C16.4374 19.8257 14.8729 18.2547 14.7208 18.174C14.5223 18.0687 14.1608 18.0878 13.9743 18.2136ZM10.4784 19.4445C10.2554 19.5258 8.6932 21.0528 8.59 21.2904C8.38399 21.7646 8.69499 22.3158 9.20072 22.3727C9.57143 22.4145 9.67157 22.3462 10.579 21.4324C11.2945 20.7121 11.4392 20.5429 11.4837 20.3751C11.6434 19.774 11.0589 19.2329 10.4784 19.4445ZM12.3875 19.8402C12.3473 19.8657 12.3222 19.9911 12.317 20.1923L12.3089 20.5047L12.5256 20.5766C13.1294 20.7771 13.5387 21.5252 13.3731 22.1253C13.3242 22.3021 13.3293 22.3198 13.4692 22.4641C13.7621 22.7663 14.1481 22.8441 14.4898 22.6698C14.8017 22.5106 14.9575 22.1486 14.8651 21.7973C14.825 21.6445 14.66 21.4521 13.9854 20.771C13.5288 20.3101 13.0981 19.9028 13.0283 19.866C12.8897 19.7931 12.4874 19.7769 12.3875 19.8402ZM11.814 21.3807C11.6232 21.5072 10.5918 22.5393 10.5191 22.6765C10.3171 23.0578 10.5638 23.4663 10.996 23.4663C11.1604 23.4663 11.2197 23.4202 11.8271 22.8198C12.6479 22.0086 12.6934 21.9307 12.5377 21.6025C12.407 21.327 12.0569 21.2197 11.814 21.3807ZM12.4548 23.3675C12.1087 23.7156 12.0917 23.742 12.1824 23.7906C12.3377 23.8737 12.6355 23.853 12.7664 23.75C12.9506 23.605 13.0151 23.404 12.9485 23.1818C12.9179 23.0797 12.8773 22.9961 12.8584 22.9961C12.8394 22.9961 12.6578 23.1632 12.4548 23.3675Z" fill="#1397D6"/>
</svg>
