<svg width="24" height="22" viewBox="0 0 24 22" fill="none" xmlns="http://www.w3.org/2000/svg">
<path fill-rule="evenodd" clip-rule="evenodd" d="M13.8519 0.130731C13.7746 0.165847 13.1739 0.73422 12.5171 1.39378L11.3228 2.59302L10.7589 2.03562C10.3075 1.58938 10.1607 1.47184 10.0228 1.44601C9.56323 1.35998 9.18699 1.66613 9.18699 2.12611C9.18699 2.23183 9.21699 2.37525 9.25366 2.44492C9.29037 2.51454 9.69648 2.94428 10.1562 3.39985C10.8499 4.08735 11.0213 4.23358 11.1642 4.26002C11.5427 4.32997 11.55 4.32435 13.1637 2.71919C13.9972 1.89014 14.7092 1.15491 14.746 1.08529C14.7829 1.01562 14.813 0.865823 14.813 0.752317C14.813 0.260693 14.2986 -0.0719941 13.8519 0.130731ZM11.2968 5.8093C10.1579 6.05473 9.19857 6.8422 8.75969 7.89192C7.90866 9.92743 9.13115 12.2412 11.2968 12.6936C11.6324 12.7637 11.6287 12.766 11.0155 12.8645C10.2276 12.9911 9.29168 13.3963 8.62527 13.8995C7.56214 14.702 6.82691 15.8373 6.50341 17.1758C6.41667 17.5347 6.40509 17.7611 6.38685 19.456C6.36707 21.2934 6.36894 21.3423 6.46468 21.53C6.5291 21.6563 6.62629 21.7547 6.74781 21.8167C6.92986 21.9096 7.01407 21.9111 12 21.9111C16.986 21.9111 17.0702 21.9096 17.2522 21.8167C17.3737 21.7547 17.4709 21.6563 17.5354 21.53C17.6311 21.3423 17.633 21.2934 17.6132 19.456C17.5949 17.7611 17.5834 17.5347 17.4966 17.1758C17.1731 15.8373 16.4379 14.702 15.3748 13.8995C14.7092 13.397 13.7571 12.9842 12.9846 12.8631C12.373 12.7672 12.3673 12.7638 12.7033 12.6936C14.087 12.4045 15.1585 11.3296 15.4422 9.94595C15.9426 7.50523 13.7198 5.28711 11.2968 5.8093ZM3.46243 8.66396C1.36855 9.24147 0.675844 11.8039 2.19999 13.3341C2.5963 13.7319 3.05313 13.9938 3.5185 14.09C3.80567 14.1493 3.88888 14.2221 3.66942 14.2221C3.4682 14.2221 2.95773 14.3636 2.57037 14.5268C1.63574 14.9205 0.746638 15.8023 0.362613 16.7162C0.0566022 17.4445 0.0304411 17.6283 0.00920271 19.1975C-0.0095977 20.5835 -0.00687844 20.6399 0.088155 20.8261C0.152855 20.953 0.249904 21.0513 0.371615 21.1134C0.549257 21.2041 0.644244 21.2078 2.75791 21.2078H4.95919L4.9801 19.3442C4.99914 17.6425 5.00997 17.4398 5.10425 17.0117C5.25738 16.3169 5.45588 15.763 5.76616 15.165C5.91853 14.8712 6.03283 14.6142 6.02013 14.5937C5.96551 14.5053 5.22371 14.2803 4.70959 14.1962L4.52205 14.1656L4.86421 14.0782C5.37684 13.9472 5.73953 13.7356 6.14039 13.3334C6.70721 12.7647 6.95912 12.1482 6.95555 11.3388C6.94998 10.0868 6.09627 8.99065 4.87368 8.66569C4.55914 8.58215 3.76272 8.58112 3.46243 8.66396ZM19.0279 8.66396C17.605 9.05638 16.7082 10.4736 16.9905 11.8837C17.1083 12.472 17.3428 12.9102 17.7654 13.3318C18.1675 13.7329 18.5363 13.9487 19.0421 14.0788C19.4081 14.1729 19.4042 14.1802 18.9421 14.2667C18.6447 14.3223 18.0581 14.5215 17.9894 14.5902C17.97 14.6096 18.0793 14.8671 18.2325 15.1622C18.5441 15.7628 18.7425 16.3161 18.8958 17.0117C18.9901 17.4398 19.0009 17.6425 19.0199 19.3442L19.0408 21.2078H21.2421C23.3558 21.2078 23.4508 21.2041 23.6284 21.1134C23.7501 21.0514 23.8472 20.953 23.9118 20.8262C24.0069 20.64 24.0095 20.5837 23.9909 19.1742C23.9687 17.5009 23.9365 17.3056 23.5556 16.5318C22.9335 15.2681 21.7905 14.4547 20.275 14.1974L20.0875 14.1656L20.4296 14.0782C20.9423 13.9472 21.305 13.7356 21.7058 13.3334C22.2726 12.7647 22.5245 12.1482 22.521 11.3388C22.5154 10.0868 21.6617 8.99065 20.4391 8.66569C20.1246 8.58215 19.3281 8.58112 19.0279 8.66396Z" fill="#1397D6"/>
</svg>
