<svg width="181" height="52" viewBox="0 0 181 52" fill="none" xmlns="http://www.w3.org/2000/svg"><path d="M173.719 52H7.281c-3.66 0-6.657-2.927-6.657-6.5v-39C.624 2.927 3.62 0 7.28 0h166.44c3.66 0 6.657 2.927 6.657 6.5v39c0 3.573-2.997 6.5-6.657 6.5z" fill="#000"/><path d="M173.719 1.042c3.082 0 5.59 2.449 5.59 5.458v39c0 3.01-2.508 5.458-5.59 5.458H7.281c-3.082 0-5.59-2.448-5.59-5.458v-39c0-3.01 2.508-5.458 5.59-5.458H173.72zm0-1.042H7.281C3.621 0 .624 2.927.624 6.5v39c0 3.573 2.997 6.5 6.657 6.5H173.72c3.66 0 6.657-2.927 6.657-6.5v-39c0-3.573-2.997-6.5-6.657-6.5z" fill="#A6A6A6"/><path d="M63.76 13.317c0 1.085-.333 1.955-.988 2.603-.754.769-1.736 1.155-2.94 1.155-1.15 0-2.132-.393-2.937-1.168-.808-.787-1.21-1.752-1.21-2.907 0-1.156.402-2.12 1.21-2.9.805-.782 1.787-1.176 2.937-1.176a4.27 4.27 0 011.64.33c.519.216.942.509 1.248.87l-.696.685c-.534-.616-1.261-.92-2.192-.92a3.09 3.09 0 00-2.183.863c-.611.579-.918 1.328-.918 2.248 0 .92.307 1.675.918 2.254.617.57 1.344.863 2.183.863.89 0 1.64-.293 2.23-.87.39-.382.611-.908.67-1.58h-2.9v-.94H63.7c.047.203.06.4.06.59zm6.137-3.257h-3.634v2.47h3.276v.94h-3.276v2.47h3.634v.957h-4.662V9.102h4.662v.957zm4.331 6.836h-1.03V10.06H70.97v-.957h5.488v.957h-2.23v6.836zm6.201 0V9.104h1.027v7.793h-1.027zm5.579 0h-1.02V10.06H82.75v-.957h5.494v.957h-2.237v6.836zm12.626-1.002c-.787.788-1.763 1.181-2.926 1.181-1.17 0-2.145-.393-2.933-1.181C91.99 15.107 91.6 14.142 91.6 13c0-1.143.39-2.108 1.176-2.894.787-.788 1.763-1.182 2.933-1.182 1.157 0 2.132.394 2.92 1.188.791.793 1.183 1.752 1.183 2.888 0 1.142-.392 2.107-1.177 2.894zm-5.098-.653c.592.583 1.313.876 2.172.876.852 0 1.58-.293 2.165-.876.591-.584.89-1.333.89-2.241 0-.909-.299-1.658-.89-2.241-.586-.583-1.313-.876-2.165-.876-.859 0-1.58.293-2.172.876-.59.583-.89 1.332-.89 2.24 0 .91.3 1.658.89 2.242zm7.718 1.655V9.104h1.248l3.881 6.061h.045l-.045-1.498V9.103h1.027v7.793h-1.072l-4.064-6.36h-.045l.045 1.505v4.855h-1.02z" fill="#fff" stroke="#fff" stroke-width=".16" stroke-miterlimit="10"/><path d="M91.346 28.278c-3.128 0-5.683 2.324-5.683 5.53 0 3.18 2.555 5.528 5.683 5.528 3.134 0 5.688-2.348 5.688-5.528 0-3.206-2.554-5.53-5.689-5.53zm0 8.88c-1.716 0-3.193-1.382-3.193-3.35 0-1.994 1.477-3.352 3.192-3.352 1.716 0 3.2 1.358 3.2 3.352 0 1.968-1.484 3.35-3.2 3.35zm-12.398-8.88c-3.134 0-5.683 2.324-5.683 5.53 0 3.18 2.549 5.528 5.683 5.528 3.132 0 5.682-2.348 5.682-5.528 0-3.206-2.55-5.53-5.682-5.53zm0 8.88c-1.718 0-3.2-1.382-3.2-3.35 0-1.994 1.482-3.352 3.2-3.352 1.716 0 3.192 1.358 3.192 3.352 0 1.968-1.476 3.35-3.192 3.35zm-14.753-7.185v2.35h5.747c-.168 1.313-.618 2.278-1.307 2.95-.839.813-2.145 1.715-4.44 1.715-3.537 0-6.307-2.787-6.307-6.24 0-3.453 2.77-6.24 6.307-6.24 1.912 0 3.303.73 4.33 1.676l1.696-1.656c-1.436-1.34-3.347-2.368-6.026-2.368-4.85 0-8.926 3.853-8.926 8.588 0 4.735 4.076 8.588 8.926 8.588 2.621 0 4.59-.838 6.138-2.411 1.586-1.549 2.08-3.726 2.08-5.484a7.68 7.68 0 00-.13-1.468h-8.088zm60.327 1.822c-.468-1.237-1.911-3.517-4.85-3.517-2.913 0-5.338 2.241-5.338 5.53 0 3.097 2.4 5.528 5.617 5.528a5.643 5.643 0 004.72-2.45l-1.93-1.256c-.644.92-1.522 1.529-2.79 1.529-1.26 0-2.164-.564-2.743-1.675l7.575-3.06-.261-.63zm-7.723 1.84a3.067 3.067 0 012.957-3.223c.989 0 1.828.483 2.108 1.173l-5.065 2.05zM110.642 39h2.49V22.75h-2.49V39zm-4.077-9.49h-.084c-.559-.647-1.626-1.232-2.977-1.232-2.836 0-5.43 2.431-5.43 5.548 0 3.099 2.594 5.51 5.43 5.51 1.351 0 2.418-.59 2.977-1.256h.084v.793c0 2.114-1.157 3.25-3.023 3.25-1.521 0-2.465-1.072-2.854-1.974l-2.166.882c.624 1.466 2.277 3.27 5.02 3.27 2.919 0 5.383-1.677 5.383-5.758v-9.928h-2.36v.895zm-2.848 7.649c-1.716 0-3.152-1.402-3.152-3.333 0-1.948 1.436-3.37 3.152-3.37 1.691 0 3.024 1.422 3.024 3.37 0 1.93-1.333 3.333-3.024 3.333zm32.462-14.409h-5.955V39h2.483v-6.157h3.472c2.758 0 5.462-1.949 5.462-5.047s-2.711-5.046-5.462-5.046zm.065 7.832h-3.537V25.01h3.537a2.853 2.853 0 012.912 2.786c0 1.257-1.058 2.787-2.912 2.787zm15.35-2.335c-1.794 0-3.66.774-4.427 2.488l2.204.902c.474-.902 1.346-1.194 2.268-1.194 1.288 0 2.595.755 2.615 2.09v.17c-.449-.253-1.411-.629-2.595-.629-2.373 0-4.792 1.276-4.792 3.657 0 2.177 1.944 3.58 4.13 3.58 1.671 0 2.593-.737 3.172-1.593h.085v1.256h2.398v-6.233c0-2.882-2.203-4.494-5.058-4.494zm-.299 8.905c-.813 0-1.944-.393-1.944-1.376 0-1.258 1.411-1.74 2.633-1.74 1.093 0 1.606.235 2.27.546-.195 1.504-1.521 2.57-2.959 2.57zm14.095-8.549l-2.854 7.045h-.085l-2.951-7.045h-2.678l4.434 9.844-2.53 5.478h2.595l6.832-15.322h-2.763zM143.006 39h2.49V22.75h-2.49V39z" fill="#fff"/><path d="M14.518 9.8c-.391.4-.618 1.023-.618 1.829v28.75c0 .805.227 1.427.618 1.827l.096.088L31.116 26.19v-.38l-16.5-16.104-.097.094z" fill="url(#paint0_linear_212_1714)"/><path d="M36.61 31.56l-5.495-5.37v-.38l5.5-5.371.124.07 6.514 3.619c1.86 1.027 1.86 2.717 0 3.75l-6.514 3.613-.13.07z" fill="url(#paint1_linear_212_1714)"/><path d="M36.74 31.49L31.114 26 14.518 42.206c.617.634 1.624.71 2.77.076l19.451-10.791z" fill="url(#paint2_linear_212_1714)"/><path d="M36.74 20.51L17.286 9.717c-1.145-.628-2.151-.551-2.769.082L31.115 26l5.624-5.49z" fill="url(#paint3_linear_212_1714)"/><defs><linearGradient id="paint0_linear_212_1714" x1="29.65" y1="40.678" x2="7.839" y2="18.338" gradientUnits="userSpaceOnUse"><stop stop-color="#00A0FF"/><stop offset=".007" stop-color="#00A1FF"/><stop offset=".26" stop-color="#00BEFF"/><stop offset=".512" stop-color="#00D2FF"/><stop offset=".76" stop-color="#00DFFF"/><stop offset="1" stop-color="#00E3FF"/></linearGradient><linearGradient id="paint1_linear_212_1714" x1="45.674" y1="25.998" x2="13.456" y2="25.998" gradientUnits="userSpaceOnUse"><stop stop-color="#FFE000"/><stop offset=".409" stop-color="#FFBD00"/><stop offset=".775" stop-color="orange"/><stop offset="1" stop-color="#FF9C00"/></linearGradient><linearGradient id="paint2_linear_212_1714" x1="33.681" y1="23.015" x2="4.104" y2="-7.279" gradientUnits="userSpaceOnUse"><stop stop-color="#FF3A44"/><stop offset="1" stop-color="#C31162"/></linearGradient><linearGradient id="paint3_linear_212_1714" x1="10.34" y1="51.771" x2="23.548" y2="38.243" gradientUnits="userSpaceOnUse"><stop stop-color="#32A071"/><stop offset=".069" stop-color="#2DA771"/><stop offset=".476" stop-color="#15CF74"/><stop offset=".801" stop-color="#06E775"/><stop offset="1" stop-color="#00F076"/></linearGradient></defs></svg>