<?xml version="1.0" encoding="UTF-8"?>
<svg width="175px" height="52px" viewBox="0 0 175 52" version="1.1" xmlns="http://www.w3.org/2000/svg" xmlns:xlink="http://www.w3.org/1999/xlink">
    <!-- Generator: Sketch 51.3 (57544) - http://www.bohemiancoding.com/sketch -->
    <title>Google Play Badge US</title>
    <desc>Created with Sketch.</desc>
    <defs>
        <linearGradient x1="91.488428%" y1="4.9481245%" x2="-38.3517333%" y2="71.9074222%" id="linearGradient-1">
            <stop stop-color="#00A0FF" offset="0%"></stop>
            <stop stop-color="#00A1FF" offset="1%"></stop>
            <stop stop-color="#00BEFF" offset="26%"></stop>
            <stop stop-color="#00D2FF" offset="51%"></stop>
            <stop stop-color="#00DFFF" offset="76%"></stop>
            <stop stop-color="#00E3FF" offset="100%"></stop>
        </linearGradient>
        <linearGradient x1="107.684729%" y1="50%" x2="-130.640394%" y2="50%" id="linearGradient-2">
            <stop stop-color="#FFE000" offset="0%"></stop>
            <stop stop-color="#FFBD00" offset="41%"></stop>
            <stop stop-color="#FFA500" offset="78%"></stop>
            <stop stop-color="#FF9C00" offset="100%"></stop>
        </linearGradient>
        <linearGradient x1="86.219293%" y1="17.8768889%" x2="-50.1497903%" y2="194.702638%" id="linearGradient-3">
            <stop stop-color="#FF3A44" offset="0%"></stop>
            <stop stop-color="#C31162" offset="100%"></stop>
        </linearGradient>
        <linearGradient x1="-18.7537448%" y1="-54.0521474%" x2="42.1210306%" y2="24.9170664%" id="linearGradient-4">
            <stop stop-color="#32A071" offset="0%"></stop>
            <stop stop-color="#2DA771" offset="7%"></stop>
            <stop stop-color="#15CF74" offset="48%"></stop>
            <stop stop-color="#06E775" offset="80%"></stop>
            <stop stop-color="#00F076" offset="100%"></stop>
        </linearGradient>
    </defs>
    <g id="Main-page" stroke="none" stroke-width="1" fill="none" fill-rule="evenodd">
        <g id="Main" transform="translate(-304.000000, -437.000000)" fill-rule="nonzero">
            <g id="Buttons" transform="translate(128.000000, 437.000000)">
                <g id="Google-Play-Badge-US" transform="translate(176.000000, 0.000000)">
                    <rect id="Background-Black" fill="#000000" x="0" y="0" width="175" height="52" rx="6.49122807"></rect>
                    <path d="M168.518519,1.04 C171.525402,1.04 173.962963,3.48452527 173.962963,6.5 L173.962963,45.5 C173.962963,48.5154747 171.525402,50.96 168.518519,50.96 L6.48148148,50.96 C3.47459784,50.96 1.03703704,48.5154747 1.03703704,45.5 L1.03703704,6.5 C1.03703704,3.48452527 3.47459784,1.04 6.48148148,1.04 L168.518519,1.04 Z M168.518519,0 L6.48148148,0 C2.9018581,2.30926389e-15 0,2.91014913 0,6.5 L0,45.5 C0,49.0898509 2.9018581,52 6.48148148,52 L168.518519,52 C172.098142,52 175,49.0898509 175,45.5 L175,6.5 C175,2.91014913 172.098142,2.30926389e-15 168.518519,0 Z" id="Border-Gray" fill="#A6A6A6"></path>
                    <path d="M88.3296296,28.275 C85.2903657,28.2893434 82.8367995,30.7692855 82.8463233,33.8172518 C82.8558472,36.8652181 85.324863,39.3296908 88.3641569,39.3249321 C91.4034508,39.3201734 93.8647812,36.8479813 93.8648148,33.8 C93.8861687,32.3236859 93.3090039,30.9019227 92.2655159,29.8603548 C91.2220279,28.8187869 89.8016212,28.2466543 88.3296296,28.275 Z M88.3296296,37.154 C86.9597392,37.2500768 85.670502,36.4966075 85.0785461,35.2539682 C84.4865903,34.0113289 84.7122316,32.5320877 85.6475484,31.5237494 C86.5828651,30.5154112 88.0377528,30.1829221 89.3163546,30.685308 C90.5949564,31.1876939 91.4373948,32.4228442 91.4407407,33.8 C91.4829258,34.6614735 91.1763387,35.5035106 90.5905523,36.1350302 C90.0047659,36.7665497 89.1894527,37.1340013 88.3296296,37.154 Z M76.2611111,28.275 C73.220129,28.2821757 70.7600542,30.7589709 70.7648216,33.8086463 C70.769589,36.8583216 73.2373953,39.3273693 76.2783849,39.324983 C79.3193745,39.3225967 81.7833249,36.8496791 81.7833333,33.8 C81.8046872,32.3236859 81.2275224,30.9019227 80.1840344,29.8603548 C79.1405464,28.8187869 77.7201397,28.2466543 76.2481481,28.275 L76.2611111,28.275 Z M76.2611111,37.154 C74.8905056,37.255495 73.5975094,36.5057827 73.0013819,35.2639256 C72.4052543,34.0220685 72.6273628,32.5409 73.5613322,31.5298014 C74.4953015,30.5187029 75.950982,30.1835269 77.2311994,30.6848004 C78.5114168,31.186074 79.3555278,32.4217414 79.3592593,33.8 C79.4014444,34.6614735 79.0948572,35.5035106 78.5090708,36.1350302 C77.9232844,36.7665497 77.1079713,37.1340013 76.2481481,37.154 L76.2611111,37.154 Z M61.8851852,29.978 L61.8851852,32.318 L67.4851852,32.318 C67.3973785,33.4201449 66.9405393,34.4601328 66.1888889,35.269 C65.0559556,36.426292 63.4881116,37.0495554 61.8722222,36.985 C58.4357838,36.985 55.65,34.1912568 55.65,30.745 C55.65,27.2987432 58.4357838,24.505 61.8722222,24.505 C63.4508463,24.4791805 64.975247,25.0822677 66.1111111,26.182 L67.7574074,24.531 C66.2082291,22.9578156 64.0898202,22.0808303 61.8851852,22.1 C58.746801,21.9775127 55.7931028,23.5867733 54.1875886,26.2938742 C52.5820744,29.000975 52.5820744,32.372025 54.1875886,35.0791258 C55.7931028,37.7862267 58.746801,39.3954873 61.8851852,39.273 C64.1300658,39.3747306 66.3091084,38.4977791 67.8611111,36.868 C69.2192093,35.3715981 69.9443151,33.4044896 69.8833333,31.382 C69.8875163,30.8892847 69.8441037,30.3973212 69.7537037,29.913 L61.8851852,29.978 Z M120.62037,31.798 C119.928251,29.7559731 118.051017,28.354369 115.901852,28.275 C114.468619,28.2721898 113.098151,28.8644298 112.115862,29.9110936 C111.133573,30.9577574 110.627087,32.3654801 110.716667,33.8 C110.684831,35.268085 111.249658,36.6860368 112.281364,37.7280463 C113.31307,38.7700558 114.722946,39.3465264 116.187037,39.325 C118.028891,39.3349567 119.752686,38.4168792 120.775926,36.881 L118.896296,35.581 C118.325597,36.5351248 117.29648,37.1178171 116.187037,37.115 C115.037989,37.1589207 113.978979,36.4938598 113.516667,35.438 L120.892593,32.383 L120.62037,31.798 Z M113.101852,33.644 C113.048771,32.8317135 113.323941,32.0321885 113.865327,31.4256685 C114.406714,30.8191485 115.168745,30.4566881 115.97963,30.42 C116.834368,30.3635171 117.640271,30.8238873 118.027778,31.59 L113.101852,33.644 Z M107.112963,39 L109.537037,39 L109.537037,22.75 L107.112963,22.75 L107.112963,39 Z M103.146296,29.51 L103.055556,29.51 C102.316618,28.6814798 101.260259,28.2085439 100.151852,28.21 C97.2094497,28.3530932 94.8971037,30.7872235 94.8971037,33.7415 C94.8971037,36.6957765 97.2094497,39.1299068 100.151852,39.273 C101.263852,39.2917509 102.327058,38.8157495 103.055556,37.973 L103.133333,37.973 L103.133333,38.766 C103.133333,40.885 102.005556,42.016 100.190741,42.016 C98.9544669,41.9869807 97.8583512,41.2113435 97.4166667,40.053 L95.3037037,40.937 C96.1173651,42.9218543 98.0508548,44.2128158 100.190741,44.2 C103.02963,44.2 105.375926,42.523 105.375926,38.441 L105.375926,28.6 L103.146296,28.6 L103.146296,29.51 Z M100.372222,37.154 C98.6389283,37.0008077 97.3095619,35.5449835 97.3095619,33.8 C97.3095619,32.0550165 98.6389283,30.5991923 100.372222,30.446 C101.209785,30.4891048 101.994519,30.8695012 102.548509,31.5009454 C103.102499,32.1323897 103.378817,32.9613919 103.314815,33.8 C103.386286,34.6424642 103.110852,35.4775605 102.552554,36.111124 C101.994256,36.7446875 101.201736,37.121518 100.359259,37.154 L100.372222,37.154 Z M131.975926,22.75 L126.181481,22.75 L126.181481,39 L128.605556,39 L128.605556,32.838 L131.988889,32.838 C133.871998,32.973673 135.672929,32.0430616 136.655724,30.4264649 C137.638519,28.8098681 137.638519,26.7781319 136.655724,25.1615351 C135.672929,23.5449384 133.871998,22.614327 131.988889,22.75 L131.975926,22.75 Z M131.975926,30.55 L128.592593,30.55 L128.592593,25.012 L132.027778,25.012 C133.563436,25.012 134.808333,26.260454 134.808333,27.8005 C134.808333,29.340546 133.563436,30.589 132.027778,30.589 L131.975926,30.55 Z M146.922222,28.21 C145.118702,28.1018906 143.423113,29.0772144 142.605556,30.693 L144.757407,31.59 C145.190896,30.7887686 146.055162,30.3197122 146.961111,30.394 C147.582721,30.321193 148.20744,30.5018611 148.694944,30.8954232 C149.182448,31.2889854 149.491868,31.8624474 149.553704,32.487 L149.553704,32.656 C148.775138,32.2425988 147.906879,32.0282627 147.025926,32.032 C144.705556,32.032 142.359259,33.332 142.359259,35.685 C142.405521,36.6986214 142.858645,37.6503784 143.615541,38.3237366 C144.372436,38.9970948 145.368738,39.3347924 146.377778,39.26 C147.621223,39.349548 148.814256,38.7513271 149.488889,37.7 L149.566667,37.7 L149.566667,39 L151.9,39 L151.9,32.747 C151.9,29.9 149.748148,28.249 146.987037,28.249 L146.922222,28.21 Z M146.624074,37.115 C145.833333,37.115 144.731481,36.712 144.731481,35.737 C144.731481,34.437 146.105556,34.008 147.324074,34.008 C148.094128,33.9889445 148.85517,34.1775036 149.527778,34.554 C149.360162,36.0092395 148.149197,37.1183027 146.688889,37.154 L146.624074,37.115 Z M160.403704,28.6 L157.62963,35.646 L157.551852,35.646 L154.674074,28.6 L152.081481,28.6 L156.398148,38.454 L153.935185,43.927 L156.462963,43.927 L163.1,28.6 L160.403704,28.6 Z M138.612963,39 L141.037037,39 L141.037037,22.75 L138.612963,22.75 L138.612963,39 Z" id="Google-Play" fill="#FFFFFF"></path>
                    <path d="M61.4703704,13.312 C61.5149028,14.2756004 61.1634951,15.215365 60.4981481,15.912 C59.7546571,16.6865442 58.7176642,17.1072535 57.6462963,17.069 C56.0030337,17.0561024 54.5275995,16.056581 53.9021931,14.5325865 C53.2767867,13.0085919 53.6232868,11.2571192 54.7814815,10.088 C55.5340243,9.31752376 56.5711208,8.89397005 57.6462963,8.918 C58.1943154,8.91616886 58.7369169,9.02676882 59.2407407,9.243 C59.7098114,9.43273963 60.1273867,9.73122352 60.4592593,10.114 L59.7722222,10.803 C59.2476718,10.1772794 58.4602211,9.83539683 57.6462963,9.88 C56.8281381,9.87597504 56.0436584,10.206414 55.4737504,10.7951209 C54.9038424,11.3838278 54.5977034,12.1799826 54.6259259,13 C54.608558,14.2391466 55.3362659,15.3670914 56.4704691,15.8590358 C57.6046723,16.3509802 58.92262,16.1103093 59.8111111,15.249 C60.2099938,14.8154976 60.440052,14.2525517 60.4592593,13.663 L57.6462963,13.663 L57.6462963,12.727 L61.4185185,12.727 C61.4530948,12.9200684 61.4704474,13.1158425 61.4703704,13.312 Z M67.4074074,10.062 L63.9074074,10.062 L63.9074074,12.532 L67.0962963,12.532 L67.0962963,13.468 L63.9074074,13.468 L63.9074074,15.938 L67.4074074,15.938 L67.4074074,16.9 L62.8703704,16.9 L62.8703704,9.1 L67.4074074,9.1 L67.4074074,10.062 Z M71.6592593,16.9 L70.6611111,16.9 L70.6611111,10.062 L68.4833333,10.062 L68.4833333,9.1 L73.8888889,9.1 L73.8888889,10.062 L71.6592593,10.062 L71.6592593,16.9 Z M77.7,16.9 L77.7,9.1 L78.6981481,9.1 L78.6981481,16.9 L77.7,16.9 Z M83.1314815,16.9 L82.1333333,16.9 L82.1333333,10.062 L79.9555556,10.062 L79.9555556,9.1 L85.2962963,9.1 L85.2962963,10.062 L83.1314815,10.062 L83.1314815,16.9 Z M95.4203704,15.886 C93.8427646,17.4592962 91.2942724,17.4592962 89.7166667,15.886 C88.1873856,14.262604 88.1873856,11.724396 89.7166667,10.101 C90.4711091,9.3388707 91.4976686,8.91024286 92.5685185,8.91024286 C93.6393684,8.91024286 94.665928,9.3388707 95.4203704,10.101 C96.9561775,11.7217878 96.9561775,14.2652122 95.4203704,15.886 Z M90.4555556,15.236 C91.6239384,16.4028346 93.5130986,16.4028346 94.6814815,15.236 C95.8289608,13.9674225 95.8289608,12.0325775 94.6814815,10.764 C93.5130986,9.59716541 91.6239384,9.59716541 90.4555556,10.764 C89.3080763,12.0325775 89.3080763,13.9674225 90.4555556,15.236 Z M97.9740741,16.9 L97.9740741,9.1 L99.1925926,9.1 L102.977778,15.171 L102.977778,9.1 L103.975926,9.1 L103.975926,16.9 L102.938889,16.9 L98.9851852,10.543 L98.9851852,16.9 L97.9740741,16.9 Z" id="GET-IT-ON" stroke="#FFFFFF" stroke-width="0.5" fill="#FFFFFF"></path>
                    <g id="Icon" transform="translate(11.666667, 9.100000)">
                        <path d="M1.86666667,0.702 C1.44415828,1.21044084 1.23090288,1.8613334 1.27037037,2.522 L1.27037037,31.278 C1.23090288,31.9386666 1.44415828,32.5895592 1.86666667,33.098 L1.95740741,33.189 L18.0185185,17.095 L18.0185185,16.718 L1.95740741,0.611 L1.86666667,0.702 Z" id="Shape" fill="url(#linearGradient-1)"></path>
                        <path d="M23.3333333,22.464 L18.0185185,17.095 L18.0185185,16.718 L23.3333333,11.336 L23.45,11.401 L29.8148148,15.028 C31.6296296,16.055 31.6296296,17.745 29.8148148,18.785 L23.4759259,22.399 L23.3333333,22.464 Z" id="Shape" fill="url(#linearGradient-2)"></path>
                        <path d="M23.4888889,22.386 L18.0185185,16.9 L1.86666667,33.098 C2.62981928,33.7707791 3.76240791,33.8035433 4.56296296,33.176 L23.5018519,22.386" id="Shape" fill="url(#linearGradient-3)"></path>
                        <path d="M23.4888889,11.414 L4.55,0.624 C3.74944495,-0.00354329183 2.61685632,0.0292208794 1.8537037,0.702 L18.0185185,16.9 L23.4888889,11.414 Z" id="Shape" fill="url(#linearGradient-4)"></path>
                        <path d="M23.3333333,22.269 L4.55,32.994 C3.78134625,33.5703374 2.72606116,33.5703374 1.95740741,32.994 L1.86666667,33.085 L1.95740741,33.176 C2.72461491,33.756683 3.7827925,33.756683 4.55,33.176 L23.4888889,22.386 L23.3333333,22.269 Z" id="Shape" fill="#000000" opacity="0.2"></path>
                        <path d="M1.86666667,32.916 C1.44415828,32.4075592 1.23090288,31.7566666 1.27037037,31.096 L1.27037037,31.291 C1.23090288,31.9516666 1.44415828,32.6025592 1.86666667,33.111 L1.95740741,33.02 L1.86666667,32.916 Z M29.8148148,18.59 L23.3333333,22.269 L23.45,22.386 L29.8148148,18.772 C30.5499057,18.4256972 31.0443109,17.7117196 31.1111111,16.9 C30.9633716,17.6342893 30.4846188,18.2584461 29.8148148,18.59 Z" id="Shape" fill="#000000" opacity="0.12"></path>
                        <path d="M4.55,0.806 L29.8148148,15.21 C30.4846188,15.5415539 30.9633716,16.1657107 31.1111111,16.9 C31.0443109,16.0882804 30.5499057,15.3743028 29.8148148,15.028 L4.55,0.624 C2.73518519,-0.403 1.25740741,0.455 1.25740741,2.535 L1.25740741,2.73 C1.2962963,0.637 2.74814815,-0.221 4.55,0.806 Z" id="Shape" fill="#FFFFFF" opacity="0.25"></path>
                    </g>
                </g>
            </g>
        </g>
    </g>
</svg>