<svg xmlns="http://www.w3.org/2000/svg" width="562" height="122" viewBox="0 0 562 122" fill="none">
    <path d="M122.88 20.39L98.65 1.41998L87.27 16.63H29.85C13.92 16.63 1 29.55 1 45.48V79.69C1 91.99 13.99 103.78 19.53 106.63L43.1 120.26L51.06 108.54H108.64C124.57 108.54 137.49 95.62 137.49 79.69V45.48C137.49 34.73 132.87 29.83 122.88 20.39Z" fill="white" stroke="#2B2B2B" stroke-width="2" stroke-miterlimit="10"/>
    <path d="M117.37 31.15L98.8004 16.24L89.8504 27.9L33.4504 27.2C21.1304 27.05 11.0104 36.91 10.8604 49.24L10.5304 75.7C10.4104 85.21 20.3404 94.46 24.6104 96.72L42.7104 107.49L48.9804 98.5L105.51 99.2C117.83 99.35 127.95 89.49 128.1 77.16L128.43 50.7C128.53 42.38 125.01 38.55 117.37 31.15Z" fill="#2B2B2B"/>
    <path d="M36.07 71.27C40.5766 71.27 44.23 67.6167 44.23 63.11C44.23 58.6034 40.5766 54.95 36.07 54.95C31.5634 54.95 27.91 58.6034 27.91 63.11C27.91 67.6167 31.5634 71.27 36.07 71.27Z" fill="#0095D4"/>
    <path d="M69.4304 70.76C73.937 70.76 77.5904 67.1066 77.5904 62.6C77.5904 58.0934 73.937 54.44 69.4304 54.44C64.9237 54.44 61.2704 58.0934 61.2704 62.6C61.2704 67.1066 64.9237 70.76 69.4304 70.76Z" fill="#0095D4"/>
    <path d="M102.43 70.76C106.937 70.76 110.59 67.1066 110.59 62.6C110.59 58.0934 106.937 54.44 102.43 54.44C97.9237 54.44 94.2704 58.0934 94.2704 62.6C94.2704 67.1066 97.9237 70.76 102.43 70.76Z" fill="#0095D4"/>
    <path d="M162.7 21.5H179.2C185.085 21.5 190.035 26.395 190.2 32.5H184.7C184.7 29.475 182.225 27 179.2 27H162.7C159.675 27 157.2 29.475 157.2 32.5V49C157.2 52.025 159.675 54.5 162.7 54.5H179.2C182.225 54.5 184.7 52.025 184.7 49H190.2C190.2 54.83 185.36 60 179.2 60H162.7C156.815 60 151.7 55.215 151.7 49V32.5C151.7 26.56 156.54 21.665 162.7 21.5Z" fill="white"/>
    <path d="M227.024 49V32.5C227.024 29.475 224.549 27 221.524 27H205.024C201.999 27 199.524 29.475 199.524 32.5V49C199.524 52.025 201.999 54.5 205.024 54.5H221.524C224.549 54.5 227.024 52.025 227.024 49ZM232.524 32.5V49C232.524 55.05 227.574 60 221.524 60H205.024C198.919 60 194.024 55.105 194.024 49V32.5C194.024 26.45 198.974 21.5 205.024 21.5H221.524C227.354 21.5 232.524 26.505 232.524 32.5Z" fill="white"/>
    <path d="M275.989 21.5V60H270.489L242.989 30.41V60H237.489V21.5H242.989L270.489 50.65V21.5H275.989Z" fill="white"/>
    <path d="M319.429 49C319.429 54.83 314.589 60 308.429 60H291.929C285.934 60 281.094 55.215 280.929 49H286.429C286.429 52.025 288.904 54.5 291.929 54.5H308.429C311.454 54.5 313.929 52.025 313.929 49C313.929 45.975 311.454 43.5 308.429 43.5H291.929C286.044 43.5 280.929 38.715 280.929 32.5C280.929 26.67 285.769 21.5 291.929 21.5H308.429C314.314 21.5 319.264 26.395 319.429 32.5H313.929C313.929 29.475 311.454 27 308.429 27H291.929C288.904 27 286.429 29.475 286.429 32.5C286.429 35.525 288.904 38 291.929 38H308.429C314.204 38 319.429 42.895 319.429 49Z" fill="white"/>
    <path d="M357.394 49V21.5H362.894V49C362.894 54.83 358.054 60 351.894 60H335.394C329.509 60 324.394 55.215 324.394 49V21.5H329.894V49C329.894 52.025 332.369 54.5 335.394 54.5H351.894C354.919 54.5 357.394 52.025 357.394 49Z" fill="white"/>
    <path d="M373.883 21.5V54.5H406.883V60H368.383V21.5H373.883Z" fill="white"/>
    <path d="M434.372 27H417.872V60H412.372V27H395.872V21.5H434.372V27Z" fill="white"/>
    <path d="M462.968 27H446.468C443.443 27 440.968 29.475 440.968 32.5V43.5H468.468V32.5C468.468 29.475 465.993 27 462.968 27ZM473.968 32.5V60H468.468V49H440.968V60H435.468V32.5C435.468 26.67 440.308 21.5 446.468 21.5H462.968C468.853 21.5 473.803 26.395 473.968 32.5Z" fill="white"/>
    <path d="M517.957 21.5V60H512.457L484.957 30.41V60H479.457V21.5H484.957L512.457 50.65V21.5H517.957Z" fill="white"/>
    <path d="M559.196 27H542.696V60H537.196V27H520.696V21.5H559.196V27Z" fill="white"/>
    <path d="M155.2 80.51V99.71H174.4V102.91H152V80.51H155.2Z" fill="white"/>
    <path d="M179.2 83.71V90.11H195.2V93.31H179.2V99.71H198.4V102.91H176V80.51H198.4V83.71H179.2Z" fill="white"/>
    <path d="M210.249 93.31V90.11H223.049V96.51C223.049 99.902 220.233 102.91 216.649 102.91H207.049C203.625 102.91 200.649 100.126 200.649 96.51V86.91C200.649 83.518 203.465 80.51 207.049 80.51H216.649C220.073 80.51 222.953 83.358 223.049 86.91H219.849C219.849 85.15 218.409 83.71 216.649 83.71H207.049C205.289 83.71 203.849 85.15 203.849 86.91V96.51C203.849 98.27 205.289 99.71 207.049 99.71H216.649C218.409 99.71 219.849 98.27 219.849 96.51V93.31H210.249Z" fill="white"/>
    <path d="M241.938 83.71H232.338C230.578 83.71 229.138 85.15 229.138 86.91V93.31H245.138V86.91C245.138 85.15 243.698 83.71 241.938 83.71ZM248.338 86.91V102.91H245.138V96.51H229.138V102.91H225.938V86.91C225.938 83.518 228.754 80.51 232.338 80.51H241.938C245.362 80.51 248.242 83.358 248.338 86.91Z" fill="white"/>
    <path d="M254.732 80.51V99.71H273.932V102.91H251.532V80.51H254.732Z" fill="white"/>
    <path d="M301.144 100.094L291.544 86.238V102.91H288.344V80.51H291.544L301.144 94.366L310.744 80.51H313.944V102.91H310.744V86.238L301.144 100.094Z" fill="white"/>
    <path d="M333.157 83.71H323.557C321.797 83.71 320.357 85.15 320.357 86.91V93.31H336.357V86.91C336.357 85.15 334.917 83.71 333.157 83.71ZM339.557 86.91V102.91H336.357V96.51H320.357V102.91H317.157V86.91C317.157 83.518 319.973 80.51 323.557 80.51H333.157C336.581 80.51 339.461 83.358 339.557 86.91Z" fill="white"/>
    <path d="M361.95 90.11V86.91C361.95 85.15 360.51 83.71 358.75 83.71H345.95V93.31H358.75C360.51 93.31 361.95 91.87 361.95 90.11ZM365.15 102.91H362.878L356.478 96.51H345.95V102.91H342.75V80.51H358.75C362.11 80.51 365.15 83.358 365.15 86.91V90.11C365.15 92.83 363.358 95.294 360.702 96.19L365.15 100.638V102.91Z" fill="white"/>
    <path d="M390.432 80.51L379.232 91.71L390.432 102.91H385.92L376.32 93.31H371.232V102.91H368.032V80.51H371.232V90.11H376.32L385.92 80.51H390.432Z" fill="white"/>
    <path d="M395.232 83.71V90.11H411.232V93.31H395.232V99.71H414.432V102.91H392.032V80.51H414.432V83.71H395.232Z" fill="white"/>
    <path d="M437.8 83.71H428.2V102.91H425V83.71H415.4V80.51H437.8V83.71Z" fill="white"/>
    <path d="M458.607 90.11V86.91C458.607 85.15 457.167 83.71 455.407 83.71H442.607V93.31H455.407C457.167 93.31 458.607 91.87 458.607 90.11ZM461.807 86.91V90.11C461.807 93.502 458.991 96.51 455.407 96.51H442.607V102.91H439.407V80.51H455.407C458.831 80.51 461.711 83.358 461.807 86.91Z" fill="white"/>
    <path d="M467.575 80.51V99.71H486.775V102.91H464.375V80.51H467.575Z" fill="white"/>
    <path d="M504.375 83.71H494.775C493.015 83.71 491.575 85.15 491.575 86.91V93.31H507.575V86.91C507.575 85.15 506.135 83.71 504.375 83.71ZM510.775 86.91V102.91H507.575V96.51H491.575V102.91H488.375V86.91C488.375 83.518 491.191 80.51 494.775 80.51H504.375C507.799 80.51 510.679 83.358 510.775 86.91Z" fill="white"/>
    <path d="M520.049 80.51H529.649C533.073 80.51 535.953 83.358 536.049 86.91H532.849C532.849 85.15 531.409 83.71 529.649 83.71H520.049C518.289 83.71 516.849 85.15 516.849 86.91V96.51C516.849 98.27 518.289 99.71 520.049 99.71H529.649C531.409 99.71 532.849 98.27 532.849 96.51H536.049C536.049 99.902 533.233 102.91 529.649 102.91H520.049C516.625 102.91 513.649 100.126 513.649 96.51V86.91C513.649 83.454 516.465 80.606 520.049 80.51Z" fill="white"/>
    <path d="M541.794 83.71V90.11H557.794V93.31H541.794V99.71H560.994V102.91H538.594V80.51H560.994V83.71H541.794Z" fill="white"/>
</svg>