<svg width="54" height="54" viewBox="0 0 54 54" fill="none" xmlns="http://www.w3.org/2000/svg">
<rect x="0.5" y="0.5" width="53" height="53" rx="9.5" stroke="white" stroke-opacity="0.15"/>
<rect width="54" height="54" rx="10" fill="black"/>
<rect x="0.5" y="0.5" width="53" height="53" rx="9.5" stroke="white" stroke-opacity="0.5"/>
<path fill-rule="evenodd" clip-rule="evenodd" d="M14.1568 15.1068C14.7468 15.8509 23.9902 28.1007 24.0191 28.1768C24.0409 28.2342 23.4446 28.9368 22.6939 29.7382C21.9433 30.5396 19.6801 32.9514 17.6645 35.0977L14 39L15.1515 38.9956L16.3031 38.9913L20.6793 34.3049C23.0861 31.7273 25.076 29.6154 25.1012 29.6117C25.1264 29.608 26.7447 31.7178 28.6974 34.3L32.2479 38.9951L36.124 38.9975L40 39L36.3895 34.2384C29.8307 25.5887 29.4952 25.1417 29.4851 25.0405C29.4767 24.9569 32.8711 21.2941 37.7808 16.089L38.8079 15L37.6511 15.0053L36.4941 15.0107L32.4646 19.318C30.2483 21.6871 28.4066 23.616 28.372 23.6046C28.3372 23.593 26.8462 21.6524 25.0584 19.2918L21.808 15H17.94C14.8583 15 14.0893 15.0217 14.1568 15.1068ZM28.7988 26.9836C33.1027 32.6586 36.6241 37.3187 36.6241 37.3395C36.6241 37.3602 35.8451 37.3772 34.893 37.3772H33.1619L32.8349 36.969C32.2089 36.1873 17.5161 16.787 17.4868 16.7034C17.4678 16.6494 18.0877 16.6275 19.2154 16.6423L20.9736 16.6655L28.7988 26.9836Z" fill="white"/>
</svg>