<?xml version="1.0" encoding="UTF-8"?><!DOCTYPE svg PUBLIC "-//W3C//DTD SVG 1.1//EN" "http://www.w3.org/Graphics/SVG/1.1/DTD/svg11.dtd"><svg xmlns="http://www.w3.org/2000/svg" xmlns:xlink="http://www.w3.org/1999/xlink"><defs><clipPath id="a"><path fill="#fff" d="M0 0h202v47H0z"/></clipPath>
<clipPath id="clip0_0_1144">
<rect width="24" height="24" fill="white" transform="translate(0 0.932373)"/>
</clipPath>
<linearGradient id="a" x1="51.122" x2="29.115" y1="9.795" y2="15.563" gradientUnits="userSpaceOnUse"><stop stop-color="#00A0FF"/><stop offset=".007" stop-color="#00A1FF"/><stop offset=".26" stop-color="#00BEFF"/><stop offset=".512" stop-color="#00D2FF"/><stop offset=".76" stop-color="#00DFFF"/><stop offset="1" stop-color="#00E3FF"/></linearGradient><linearGradient id="b" x1="64.439" x2="37.664" y1="22.5" y2="22.5" gradientUnits="userSpaceOnUse"><stop stop-color="#FFE000"/><stop offset=".409" stop-color="#FFBD00"/><stop offset=".775" stop-color="orange"/><stop offset="1" stop-color="#FF9C00"/></linearGradient><linearGradient id="c" x1="54.472" x2="36.409" y1="25.084" y2="54.988" gradientUnits="userSpaceOnUse"><stop stop-color="#FF3A44"/><stop offset="1" stop-color="#C31162"/></linearGradient><linearGradient id="d" x1="35.072" x2="43.131" y1=".201" y2="13.557" gradientUnits="userSpaceOnUse"><stop stop-color="#32A071"/><stop offset=".069" stop-color="#2DA771"/><stop offset=".476" stop-color="#15CF74"/><stop offset=".801" stop-color="#06E775"/><stop offset="1" stop-color="#00F076"/></linearGradient>
    <style id="style2">.b{fill:none;stroke:#000000;stroke-linecap:round;stroke-linejoin:round;}</style>
  
    <style id="style2">.b{fill:none;stroke:#000000;stroke-linecap:round;stroke-linejoin:round;}</style>
  
<clipPath id="clip0_206_135807">
<rect width="24" height="24" fill="white"/>
</clipPath>

    <style id="style2">.cls-1{fill:none;stroke:#000000;stroke-linecap:round;stroke-linejoin:round;}</style>
  </defs><symbol id="appstore_modal"><g clip-path="url(#a)"><path fill="#000" d="M185.914 0H16.095c-.619 0-1.23 0-1.848.003-.517.002-1.03.009-1.551.014-1.134.01-2.264.08-3.383.208-1.117.132-2.198.38-3.209.737-1.009.36-1.93.827-2.732 1.385-.806.556-1.477 1.2-1.989 1.904A6.281 6.281 0 0 0 .328 6.488C.14 7.265.04 8.052.026 8.84.01 9.2.008 9.562 0 9.922v27.16c.008.364.01.718.026 1.083.013.788.114 1.574.302 2.352a6.267 6.267 0 0 0 1.055 2.237c.512.703 1.183 1.344 1.989 1.897.798.56 1.721 1.028 2.732 1.385 1.01.358 2.092.608 3.21.741 1.118.128 2.248.198 3.382.208.522.008 1.034.013 1.551.013.617.002 1.23.002 1.848.002h169.819c.607 0 1.223 0 1.83-.002.514 0 1.042-.005 1.556-.013 1.131-.01 2.26-.08 3.376-.208a15.208 15.208 0 0 0 3.221-.74 11.277 11.277 0 0 0 2.73-1.386 8.396 8.396 0 0 0 1.995-1.897c.51-.704.862-1.459 1.045-2.237.188-.778.293-1.564.313-2.352.007-.365.007-.719.007-1.084.013-.427.013-.851.013-1.285v-24.59c0-.431 0-.858-.013-1.284 0-.36 0-.722-.007-1.082a11.208 11.208 0 0 0-.313-2.352 6.295 6.295 0 0 0-1.045-2.237c-1.042-1.413-2.694-2.564-4.725-3.29a15.139 15.139 0 0 0-3.221-.736A31.423 31.423 0 0 0 189.3.017c-.514-.005-1.042-.012-1.556-.015C187.137 0 186.521 0 185.914 0Z"/><path fill="#fff" d="M13.842 45.998a97.61 97.61 0 0 1-1.533-.013 30.832 30.832 0 0 1-3.17-.192 13.259 13.259 0 0 1-2.81-.644 9.795 9.795 0 0 1-2.37-1.196 7.001 7.001 0 0 1-1.73-1.643 5.44 5.44 0 0 1-.922-1.95 10.272 10.272 0 0 1-.282-2.206A74.445 74.445 0 0 1 1 37.08V9.905s.015-.814.025-1.053c.013-.738.107-1.474.28-2.202.163-.68.473-1.34.922-1.955A7.048 7.048 0 0 1 3.95 3.05c.697-.485 1.5-.89 2.379-1.203.883-.31 1.828-.525 2.804-.64a30.572 30.572 0 0 1 3.18-.193L13.844 1h174.305l1.549.015a30.08 30.08 0 0 1 3.152.191c.986.116 1.941.334 2.834.645 1.76.629 3.193 1.624 4.096 2.847.442.61.748 1.265.908 1.94.176.733.274 1.475.295 2.22.005.333.005.69.005 1.047.013.44.013.86.013 1.284v24.62c0 .428 0 .845-.013 1.266 0 .382 0 .733-.007 1.093-.02.731-.117 1.46-.29 2.18a5.43 5.43 0 0 1-.916 1.965 7.223 7.223 0 0 1-1.722 1.63 9.801 9.801 0 0 1-2.374 1.203c-.891.313-1.844.531-2.829.647a30.46 30.46 0 0 1-3.17.192c-.497.008-1.017.013-1.522.013l-1.839.002-172.476-.002Z"/><path fill="#000" d="M57.289 24.862a6.419 6.419 0 0 1 3.071-5.397 6.598 6.598 0 0 0-5.202-2.805c-2.19-.23-4.311 1.306-5.427 1.306-1.137 0-2.854-1.284-4.703-1.245a6.942 6.942 0 0 0-3.384 1.006 6.918 6.918 0 0 0-2.447 2.54c-2.52 4.352-.64 10.749 1.774 14.267 1.209 1.723 2.62 3.647 4.468 3.579 1.809-.075 2.484-1.15 4.666-1.15 2.163 0 2.796 1.15 4.681 1.106 1.94-.031 3.163-1.73 4.329-3.47a14.235 14.235 0 0 0 1.979-4.019 6.23 6.23 0 0 1-2.766-2.288 6.204 6.204 0 0 1-1.04-3.43ZM53.728 14.346a6.322 6.322 0 0 0 1.453-4.537A6.468 6.468 0 0 0 51 11.966a6.023 6.023 0 0 0-1.491 4.37 5.356 5.356 0 0 0 4.219-1.99ZM78.98 33.924h-5.933l-1.424 4.196h-2.514l5.62-15.523h2.611l5.62 15.523h-2.556l-1.423-4.196Zm-5.318-1.936h4.703l-2.318-6.809h-.065l-2.32 6.81ZM95.098 32.462c0 3.517-1.888 5.776-4.737 5.776a3.855 3.855 0 0 1-3.57-1.98h-.054v5.606h-2.33V26.803h2.255v1.882h.043a4.02 4.02 0 0 1 3.614-2c2.88 0 4.779 2.27 4.779 5.777Zm-2.395 0c0-2.291-1.187-3.798-2.999-3.798-1.78 0-2.977 1.538-2.977 3.798 0 2.28 1.197 3.807 2.977 3.807 1.812 0 3-1.495 3-3.807ZM107.589 32.462c0 3.517-1.888 5.776-4.736 5.776a3.854 3.854 0 0 1-3.571-1.98h-.054v5.606h-2.33V26.803h2.255v1.882h.043a4.033 4.033 0 0 1 3.614-2c2.88 0 4.779 2.27 4.779 5.777Zm-2.395 0c0-2.291-1.187-3.798-2.999-3.798-1.78 0-2.977 1.538-2.977 3.798 0 2.28 1.197 3.807 2.977 3.807 1.812 0 2.999-1.495 2.999-3.807ZM115.844 33.795c.172 1.54 1.672 2.55 3.721 2.55 1.964 0 3.376-1.01 3.376-2.399 0-1.204-.852-1.926-2.869-2.42l-2.018-.485c-2.858-.689-4.185-2.021-4.185-4.185 0-2.678 2.341-4.517 5.663-4.517 3.29 0 5.545 1.84 5.621 4.517h-2.351c-.141-1.549-1.425-2.484-3.302-2.484-1.876 0-3.161.946-3.161 2.323 0 1.098.821 1.744 2.827 2.238l1.715.42c3.194.753 4.519 2.032 4.519 4.303 0 2.904-2.318 4.723-6.008 4.723-3.452 0-5.782-1.776-5.933-4.584h2.385ZM130.43 24.125v2.678h2.158v1.84h-2.158v6.238c0 .97.432 1.421 1.381 1.421.256-.004.512-.022.766-.053v1.828c-.426.08-.86.116-1.294.108-2.297 0-3.193-.861-3.193-3.056v-6.487h-1.651v-1.84h1.651v-2.677h2.34ZM133.837 32.462c0-3.56 2.103-5.798 5.382-5.798 3.291 0 5.384 2.237 5.384 5.798 0 3.57-2.082 5.798-5.384 5.798-3.3 0-5.382-2.227-5.382-5.798Zm8.393 0c0-2.443-1.123-3.884-3.011-3.884-1.887 0-3.01 1.452-3.01 3.884 0 2.452 1.123 3.883 3.01 3.883 1.888 0 3.011-1.43 3.011-3.883ZM146.524 26.803h2.222v1.926h.054a2.698 2.698 0 0 1 1.001-1.506 2.713 2.713 0 0 1 1.729-.539c.268 0 .536.028.798.087v2.173a3.264 3.264 0 0 0-1.047-.14 2.357 2.357 0 0 0-1.814.745 2.338 2.338 0 0 0-.613 1.858v6.713h-2.33V26.803ZM163.068 34.796c-.313 2.054-2.319 3.464-4.886 3.464-3.302 0-5.351-2.206-5.351-5.744 0-3.55 2.06-5.852 5.253-5.852 3.14 0 5.114 2.15 5.114 5.582v.796h-8.015v.14a2.941 2.941 0 0 0 1.828 2.99c.388.157.806.231 1.225.216a2.574 2.574 0 0 0 1.575-.363 2.558 2.558 0 0 0 1.045-1.23h2.212Zm-7.874-3.378h5.673a2.717 2.717 0 0 0-1.686-2.668 2.733 2.733 0 0 0-1.097-.204 2.878 2.878 0 0 0-2.672 1.77c-.145.35-.219.724-.218 1.102ZM73.37 10.914a3.318 3.318 0 0 1 2.64 1.022 3.297 3.297 0 0 1 .88 2.684c0 2.383-1.291 3.752-3.52 3.752H70.67v-7.458h2.702Zm-1.54 6.403h1.41a2.358 2.358 0 0 0 1.874-.755 2.345 2.345 0 0 0 .593-1.927 2.344 2.344 0 0 0-.602-1.914 2.358 2.358 0 0 0-1.864-.753h-1.41v5.35ZM78.202 15.555a2.662 2.662 0 0 1 1.58-2.692 2.68 2.68 0 0 1 3.62 1.597c.117.352.16.725.124 1.095a2.661 2.661 0 0 1-1.579 2.697 2.68 2.68 0 0 1-3.622-1.6 2.661 2.661 0 0 1-.123-1.097Zm4.178 0c0-1.22-.55-1.933-1.514-1.933-.969 0-1.513.713-1.513 1.933 0 1.23.544 1.938 1.513 1.938.964 0 1.514-.713 1.514-1.938ZM90.603 18.372h-1.156l-1.167-4.145h-.088l-1.161 4.145h-1.145l-1.556-5.629h1.13l1.011 4.295h.083l1.16-4.295h1.07l1.16 4.295h.088l1.006-4.295h1.114l-1.55 5.63ZM93.46 12.743h1.073v.894h.084a1.687 1.687 0 0 1 1.684-1.002 1.84 1.84 0 0 1 1.89 1.282c.082.262.104.54.064.811v3.644H97.14v-3.365c0-.904-.395-1.354-1.218-1.354a1.299 1.299 0 0 0-1.288.877c-.06.177-.08.364-.06.55v3.292H93.46v-5.629ZM100.029 10.546h1.114v7.826h-1.114v-7.826ZM102.692 15.555a2.662 2.662 0 0 1 1.58-2.692 2.683 2.683 0 0 1 3.061.645 2.666 2.666 0 0 1 .684 2.047 2.656 2.656 0 0 1-1.579 2.697 2.686 2.686 0 0 1-2.167 0 2.667 2.667 0 0 1-1.579-2.697Zm4.178 0c0-1.22-.549-1.933-1.514-1.933-.968 0-1.513.713-1.513 1.933 0 1.23.545 1.938 1.513 1.938.965 0 1.514-.713 1.514-1.938ZM109.189 16.78c0-1.013.757-1.597 2.1-1.68l1.529-.088v-.486c0-.594-.394-.93-1.156-.93-.622 0-1.053.228-1.176.626h-1.079c.114-.967 1.026-1.587 2.307-1.587 1.415 0 2.213.702 2.213 1.891v3.846h-1.072v-.79h-.089a1.897 1.897 0 0 1-1.695.883 1.708 1.708 0 0 1-1.882-1.685Zm3.629-.48v-.471l-1.379.088c-.777.052-1.129.315-1.129.811 0 .507.44.802 1.046.802a1.338 1.338 0 0 0 .993-.306 1.322 1.322 0 0 0 .469-.925ZM115.391 15.555c0-1.778.917-2.905 2.343-2.905a1.866 1.866 0 0 1 1.731.987h.083v-3.09h1.114v7.825h-1.068v-.89h-.088a1.96 1.96 0 0 1-1.772.982c-1.436 0-2.343-1.126-2.343-2.909Zm1.15 0c0 1.194.565 1.913 1.508 1.913.939 0 1.52-.73 1.52-1.908 0-1.173-.587-1.912-1.52-1.912-.937 0-1.508.723-1.508 1.907ZM125.27 15.555a2.662 2.662 0 0 1 1.58-2.692 2.683 2.683 0 0 1 3.061.645 2.667 2.667 0 0 1 .683 2.047 2.668 2.668 0 0 1-2.662 2.926 2.68 2.68 0 0 1-2.539-1.829 2.668 2.668 0 0 1-.123-1.097Zm4.178 0c0-1.22-.549-1.933-1.514-1.933-.968 0-1.513.713-1.513 1.933 0 1.23.545 1.938 1.513 1.938.965 0 1.514-.713 1.514-1.938ZM132.089 12.743h1.072v.894h.083a1.692 1.692 0 0 1 1.685-1.002 1.844 1.844 0 0 1 1.481.578 1.83 1.83 0 0 1 .473 1.515v3.644h-1.114v-3.365c0-.904-.395-1.354-1.218-1.354a1.299 1.299 0 0 0-1.288.877c-.059.177-.08.364-.06.55v3.292h-1.114v-5.629ZM143.177 11.342v1.427h1.223v.936h-1.223v2.894c0 .59.244.848.798.848.142 0 .284-.01.425-.026v.925c-.2.036-.403.055-.606.057-1.239 0-1.732-.434-1.732-1.52v-3.178h-.896v-.936h.896v-1.427h1.115ZM145.922 10.546h1.104v3.102h.088a1.734 1.734 0 0 1 1.721-1.008 1.862 1.862 0 0 1 1.874 1.292c.083.26.107.536.07.806v3.634h-1.115v-3.36c0-.899-.42-1.354-1.207-1.354a1.32 1.32 0 0 0-1.348.864c-.065.18-.09.372-.073.563v3.287h-1.114v-7.826ZM157.275 16.852a2.29 2.29 0 0 1-2.446 1.629 2.566 2.566 0 0 1-2.52-1.81 2.543 2.543 0 0 1-.088-1.095 2.588 2.588 0 0 1 .629-2.063 2.611 2.611 0 0 1 1.974-.878c1.57 0 2.518 1.07 2.518 2.837v.388h-3.986v.062a1.489 1.489 0 0 0 1.503 1.613 1.357 1.357 0 0 0 1.343-.683h1.073Zm-3.919-1.814h2.851a1.353 1.353 0 0 0-.371-1.036 1.365 1.365 0 0 0-1.018-.422 1.452 1.452 0 0 0-1.039.422 1.436 1.436 0 0 0-.423 1.036Z"/></g></symbol><symbol id="arrow-down" viewBox="0 0 24 25">
<g id="fi-bs-angle-down" clip-path="url(#clip0_0_1144)">
<path id="Vector" d="M0 8.98933L9.52 18.4963C10.1772 19.1505 11.0667 19.5177 11.994 19.5177C12.9213 19.5177 13.8108 19.1505 14.468 18.4963L24 8.97833L21.879 6.86133L12.348 16.3783C12.2542 16.4721 12.1271 16.5247 11.9945 16.5247C11.8619 16.5247 11.7348 16.4721 11.641 16.3783L2.121 6.87233L0 8.98933Z" fill="#1397D6"/>
</g>

</symbol><symbol id="arrow-l" viewBox="0 0 24 24">
	<path d="M16.9189 2.31968L17.5786 2.97481C17.7846 3.18099 17.8981 3.4553 17.8981 3.74847C17.8981 4.04148 17.7846 4.31612 17.5786 4.5223L10.105 11.9955L17.5869 19.4774C17.7929 19.6832 17.9062 19.9579 17.9062 20.2509C17.9062 20.5439 17.7929 20.8187 17.5869 21.0247L16.9313 21.68C16.5049 22.1067 15.8105 22.1067 15.3841 21.68L6.44405 12.772C6.23819 12.5661 6.09315 12.2918 6.09315 11.9962V11.9928C6.09315 11.6996 6.23835 11.4253 6.44405 11.2194L15.3599 2.31968C15.5657 2.1135 15.8483 2.00033 16.1414 2C16.4345 2 16.7132 2.1135 16.9189 2.31968Z" fill="currentColor"/>
</symbol><symbol id="arrow-r" viewBox="0 0 24 24">
	<path d="M7.08108 2.31968L6.4214 2.97481C6.21538 3.18099 6.10188 3.4553 6.10188 3.74847C6.10188 4.04148 6.21538 4.31612 6.4214 4.5223L13.895 11.9955L6.4131 19.4774C6.20708 19.6832 6.09375 19.9579 6.09375 20.2509C6.09375 20.5439 6.20708 20.8187 6.4131 21.0247L7.06872 21.68C7.49506 22.1067 8.18954 22.1067 8.61588 21.68L17.556 12.772C17.7618 12.5661 17.9069 12.2918 17.9069 11.9962V11.9928C17.9069 11.6996 17.7616 11.4253 17.556 11.2194L8.64011 2.31968C8.43426 2.1135 8.15165 2.00033 7.85864 2C7.56547 2 7.28677 2.1135 7.08108 2.31968Z" fill="currentColor"/>
</symbol><symbol id="burger" viewBox="0 0 20 21">
	<rect y="0.500122" width="5.21707" height="5.21707" fill="currentColor"/>
	<rect y="7.89148" width="5.21707" height="5.21707" fill="currentColor"/>
	<rect y="15.2828" width="5.21707" height="5.21707" fill="currentColor"/>
	<rect x="7.3916" y="0.500122" width="5.21707" height="5.21707" fill="currentColor"/>
	<rect x="7.3916" y="7.89148" width="5.21707" height="5.21707" fill="currentColor"/>
	<rect x="7.3916" y="15.2828" width="5.21707" height="5.21707" fill="currentColor"/>
	<rect x="14.7812" y="0.500122" width="5.21707" height="5.21707" fill="currentColor"/>
	<rect x="14.7812" y="7.89148" width="5.21707" height="5.21707" fill="currentColor"/>
	<rect x="14.7812" y="15.2828" width="5.21707" height="5.21707" fill="currentColor"/>
</symbol><symbol id="clock" viewBox="0 0 25 24">
<path fill-rule="evenodd" clip-rule="evenodd" d="M12.7166 2C7.24406 2 2.8125 6.48 2.8125 12C2.8125 17.52 7.24406 22 12.7166 22C18.199 22 22.6405 17.52 22.6405 12C22.6405 6.48 18.199 2 12.7166 2ZM12.7281 20C8.34609 20 4.79688 16.42 4.79688 12C4.79688 7.58 8.34609 4 12.7281 4C17.1101 4 20.6593 7.58 20.6593 12C20.6593 16.42 17.1101 20 12.7281 20Z" fill="#1795D1" fill-opacity="0.99"/>
<path fill-rule="evenodd" clip-rule="evenodd" d="M13.2215 7H11.7344V13L16.9392 16.15L17.6828 14.92L13.2215 12.25V7Z" fill="#1795D1" fill-opacity="0.99"/>
</symbol><symbol id="contacts" viewBox="0 0 26 26">
<path d="M24.375 4.0625H1.625C0.728 4.0625 0 4.7905 0 5.6875V6.61212L13 12.1176L26 6.6105V5.6875C26 4.7905 25.272 4.0625 24.375 4.0625Z" fill="#1397D6"/>
<path d="M13.3169 13.7476C13.2161 13.7915 13.1073 13.8126 13 13.8126C12.8927 13.8126 12.7839 13.7915 12.6831 13.7476L0 8.37695V20.3126C0 21.2096 0.728 21.9376 1.625 21.9376H24.375C25.272 21.9376 26 21.2096 26 20.3126V8.37695L13.3169 13.7476Z" fill="#1397D6"/>
</symbol><symbol id="enter" viewBox="0 0 25 26">
	<path d="M10.6771 12.2188H0.78125C0.35 12.2188 0 11.8687 0 11.4375C0 11.0063 0.35 10.6562 0.78125 10.6562H10.6771C11.1084 10.6562 11.4584 11.0063 11.4584 11.4375C11.4584 11.8687 11.1084 12.2188 10.6771 12.2188Z" fill="currentColor"/>
	<path d="M6.76936 16.1239C6.66674 16.1241 6.5651 16.104 6.47032 16.0647C6.37553 16.0254 6.28949 15.9676 6.21716 15.8948C5.91199 15.5895 5.91199 15.0947 6.21716 14.7895L9.57146 11.4354L6.21716 8.08234C5.91199 7.77697 5.91199 7.28219 6.21716 6.97702C6.52234 6.67184 7.01711 6.67184 7.32249 6.97702L11.2287 10.8833C11.5339 11.1884 11.5339 11.6832 11.2287 11.9886L7.32249 15.8948C7.24992 15.9676 7.16369 16.0252 7.06877 16.0645C6.97385 16.1039 6.8721 16.124 6.76936 16.1239ZM16.6651 25.4989C15.5161 25.4989 14.5819 24.5645 14.5819 23.4155V4.66549C14.5819 3.77497 15.1485 2.98014 15.9922 2.68737L22.2506 0.600943C23.6506 0.171744 24.9985 1.21032 24.9985 2.58229V21.3323C24.9985 22.2219 24.4318 23.0155 23.5891 23.3092L17.3286 25.3968C17.1005 25.4676 16.8892 25.4989 16.6651 25.4989ZM22.9151 2.06139C22.8473 2.06139 22.7901 2.06979 22.7287 2.08849L16.4965 4.16652C16.2922 4.23747 16.1444 4.44367 16.1444 4.66549V23.4155C16.1444 23.7708 16.5296 24.0104 16.8516 23.9093L23.0839 21.8313C23.287 21.7603 23.436 21.5541 23.436 21.3323V2.58229C23.436 2.29582 23.2027 2.06139 22.9151 2.06139Z" fill="currentColor"/>
	<path d="M9.11328 5.7084C8.68203 5.7084 8.33203 5.3584 8.33203 4.92715V3.36465C8.33203 1.78442 9.61621 0.5 11.1965 0.5H22.9152C23.3465 0.5 23.6965 0.85 23.6965 1.28125C23.6965 1.7125 23.3465 2.0625 22.9152 2.0625H11.1965C10.4787 2.0625 9.89453 2.64692 9.89453 3.36465V4.92715C9.89453 5.3584 9.54453 5.7084 9.11328 5.7084ZM15.3633 22.375H11.1965C9.61626 22.375 8.33203 21.0906 8.33203 19.5104V17.9479C8.33203 17.5166 8.68203 17.1666 9.11328 17.1666C9.54453 17.1666 9.89453 17.5166 9.89453 17.9479V19.5104C9.89453 20.2281 10.4788 20.8125 11.1965 20.8125H15.3633C15.7945 20.8125 16.1445 21.1625 16.1445 21.5938C16.1445 22.025 15.7945 22.375 15.3633 22.375Z" fill="currentColor"/>
</symbol><symbol id="eye" viewBox="0 0 24 24">
<path d="M11.9985 15.998C14.2068 15.998 15.997 14.2078 15.997 11.9995C15.997 9.79117 14.2068 8.00098 11.9985 8.00098C9.79019 8.00098 8 9.79117 8 11.9995C8 14.2078 9.79019 15.998 11.9985 15.998Z" fill="white"/>
<path d="M23.2668 9.41971C21.7164 6.89465 18.1897 2.6582 12 2.6582C5.81027 2.6582 2.28358 6.89465 0.733158 9.41971C-0.244386 11.0008 -0.244386 12.9986 0.733158 14.5798C2.28358 17.1049 5.81027 21.3413 12 21.3413C18.1897 21.3413 21.7164 17.1049 23.2668 14.5798C24.2443 12.9986 24.2443 11.0008 23.2668 9.41971ZM12 17.9975C8.68752 17.9975 6.0022 15.3122 6.0022 11.9997C6.0022 8.68728 8.68752 6.00196 12 6.00196C15.3124 6.00196 17.9978 8.68728 17.9978 11.9997C17.9944 15.3108 15.3111 17.9942 12 17.9975Z" fill="white"/>
</symbol><symbol id="geo-transparent" viewBox="0 0 20 21">
<path d="M9.9999 1C11.7175 1.00217 13.3678 1.70902 14.5878 2.97138C15.8085 4.23446 16.498 5.95051 16.5 7.74391C16.4999 8.88665 16.1363 10.199 15.5573 11.554C14.9806 12.9033 14.205 14.2612 13.4145 15.4856C11.8334 17.9344 10.2178 19.8102 10.0913 19.9559C10.078 19.9712 10.0628 19.9823 10.0473 19.9894C10.0318 19.9966 10.0157 20 10 20C9.9843 20 9.96825 19.9966 9.95272 19.9894C9.93714 19.9823 9.92187 19.9711 9.90855 19.9558L9.90834 19.9556C9.78227 19.8106 8.16668 17.9348 6.58553 15.486C5.79499 14.2616 5.01936 12.9036 4.44274 11.5543C3.86365 10.1991 3.50006 8.88654 3.5 7.74362C3.50203 5.95034 4.19152 4.2344 5.41208 2.97139C6.63202 1.70902 8.28229 1.00217 9.9999 1ZM9.9999 11.8876H10.0005C11.0722 11.8863 12.0961 11.4451 12.8485 10.6665C13.6004 9.88844 14.0205 8.8371 14.0217 7.74391V7.74335C14.0217 6.92742 13.788 6.12848 13.3482 5.44747C12.9084 4.76628 12.2814 4.23271 11.5446 3.91691C10.8076 3.60103 9.99562 3.51808 9.21203 3.67936C8.42858 3.84062 7.71136 4.2382 7.15008 4.819C6.58897 5.39962 6.20868 6.13734 6.05477 6.938C5.90087 7.7386 5.97972 8.56862 6.282 9.32377C6.58433 10.079 7.09741 10.7273 7.75894 11.1847C8.4207 11.6423 9.20059 11.8876 9.9999 11.8876Z" stroke="currentColor"/>
</symbol><symbol id="googlestore_modal"><path fill="#000" fill-rule="evenodd" d="M195.516 45H8.484C4.36 45 1 42.464 1 39.375V5.625C1 2.525 4.36 0 8.484 0h187.032C199.637 0 203 2.525 203 5.625v33.75c0 3.089-3.363 5.625-7.484 5.625Z" clip-rule="evenodd"/><path fill="#A6A6A6" fill-rule="evenodd" d="M195.516.9c3.459 0 6.291 2.124 6.291 4.725v33.75c0 2.6-2.813 4.724-6.291 4.724H8.484c-3.46 0-6.291-2.123-6.291-4.724V5.625c0-2.6 2.813-4.724 6.291-4.724h187.032Zm0-.9H8.484C4.36 0 1 2.536 1 5.625v33.75C1 42.475 4.36 45 8.484 45h187.032c4.121 0 7.484-2.525 7.484-5.625V5.625C203 2.536 199.637 0 195.516 0Z" clip-rule="evenodd"/><path fill="#fff" d="M106.021 14.886c-1.002 0-1.846-.356-2.514-1.058a3.634 3.634 0 0 1-1.016-2.58c0-1.025.342-1.892 1.016-2.579.665-.701 1.509-1.058 2.511-1.058.991 0 1.835.357 2.514 1.058.673.71 1.015 1.577 1.015 2.578-.011 1.027-.353 1.894-1.015 2.579-.665.707-1.51 1.06-2.511 1.06Zm-29.805 0c-.98 0-1.83-.35-2.525-1.044-.69-.69-1.04-1.562-1.04-2.592s.35-1.902 1.04-2.592c.681-.693 1.531-1.044 2.525-1.044.485 0 .957.098 1.41.298.444.193.805.457 1.073.78l.066.08-.747.747-.078-.093c-.422-.51-.988-.76-1.735-.76-.668 0-1.25.241-1.73.718-.483.48-.73 1.109-.73 1.869s.246 1.389.73 1.868c.48.477 1.062.718 1.73.718.712 0 1.31-.24 1.777-.718.276-.28.447-.673.507-1.17h-2.398v-1.049h3.428l.013.096c.025.176.05.359.05.527 0 .968-.287 1.75-.855 2.329-.646.684-1.49 1.032-2.511 1.032Zm39.628-.149h-1.057l-3.236-5.266.027.949v4.315h-1.057V7.763h1.206l.033.053 3.044 4.96-.028-.945V7.763h1.068v6.974Zm-17.765 0h-1.07V8.812H95.15v-1.05h4.782v1.05h-1.857v5.925h.003Zm-3.8 0h-1.068V7.763h1.068v6.974Zm-6.002 0H87.21V8.812h-1.857v-1.05h4.782v1.05h-1.857v5.925Zm-3.6-.011H80.58V7.763h4.095v1.05h-3.024v1.912h2.729v1.038h-2.73v1.914h3.025v1.049Zm19.613-1.619c.478.486 1.057.73 1.731.73.692 0 1.258-.239 1.73-.73.469-.477.706-1.102.706-1.857 0-.755-.237-1.383-.703-1.857a2.35 2.35 0 0 0-1.731-.73c-.692 0-1.258.239-1.727.73-.469.477-.706 1.102-.706 1.857 0 .755.234 1.383.7 1.857Z"/><path fill="#fff" fill-rule="evenodd" d="M102.392 24.475c-2.608 0-4.722 2.011-4.722 4.786 0 2.75 2.128 4.786 4.722 4.786 2.608 0 4.721-2.025 4.721-4.786 0-2.774-2.113-4.786-4.721-4.786Zm0 7.676c-1.427 0-2.655-1.201-2.655-2.901 0-1.726 1.231-2.901 2.655-2.901 1.427 0 2.655 1.175 2.655 2.9.002 1.712-1.228 2.902-2.655 2.902Zm-10.301-7.676c-2.608 0-4.722 2.011-4.722 4.786 0 2.75 2.128 4.786 4.722 4.786 2.608 0 4.721-2.025 4.721-4.786 0-2.774-2.116-4.786-4.721-4.786Zm0 7.676c-1.427 0-2.655-1.201-2.655-2.901 0-1.726 1.23-2.901 2.655-2.901 1.426 0 2.654 1.175 2.654 2.9 0 1.712-1.228 2.902-2.654 2.902Zm-12.258-6.214v2.025h4.782c-.146 1.136-.516 1.975-1.081 2.55-.701.713-1.783 1.487-3.69 1.487-2.939 0-5.237-2.412-5.237-5.4 0-2.988 2.298-5.4 5.237-5.4 1.587 0 2.743.636 3.601 1.45l1.413-1.437c-1.192-1.161-2.779-2.05-5.003-2.05-4.031 0-7.415 3.338-7.415 7.425 0 4.1 3.38 7.427 7.415 7.427 2.177 0 3.811-.724 5.102-2.088 1.317-1.338 1.733-3.226 1.733-4.75 0-.473-.035-.9-.11-1.262h-6.75c.003-.003.003.023.003.023Zm50.137 1.576c-.394-1.074-1.586-3.05-4.031-3.05-2.423 0-4.438 1.94-4.438 4.787 0 2.688 1.993 4.786 4.672 4.786 2.153 0 3.405-1.338 3.921-2.124l-1.597-1.088c-.53.8-1.267 1.324-2.313 1.324-1.057 0-1.796-.488-2.287-1.45l6.294-2.652c0 .003-.221-.533-.221-.533Zm-6.418 1.6c-.05-1.85 1.413-2.79 2.458-2.79.825 0 1.513.413 1.747 1.014l-4.205 1.775Zm-5.114 4.637h2.067V19.689h-2.067v14.06Zm-3.394-8.212h-.074c-.467-.564-1.353-1.074-2.484-1.074-2.348 0-4.512 2.101-4.512 4.8 0 2.688 2.153 4.764 4.512 4.764 1.118 0 2.017-.514 2.484-1.089h.074v.688c0 1.826-.96 2.81-2.508 2.81-1.267 0-2.053-.925-2.373-1.7l-1.797.764c.516 1.262 1.893 2.825 4.167 2.825 2.423 0 4.476-1.45 4.476-4.989V24.75h-1.954v.788h-.011Zm-2.373 6.613c-1.427 0-2.619-1.212-2.619-2.887 0-1.689 1.192-2.912 2.619-2.912 1.413 0 2.508 1.237 2.508 2.912.014 1.675-1.092 2.887-2.508 2.887Zm26.977-12.462h-4.943v14.06h2.067v-5.324h2.878c2.288 0 4.537-1.686 4.537-4.362 0-2.677-2.241-4.374-4.539-4.374Zm.06 6.772h-2.938v-4.825h2.938c1.549 0 2.423 1.299 2.423 2.413 0 1.102-.886 2.412-2.423 2.412Zm12.763-2.011c-1.501 0-3.049.676-3.689 2.149l1.832.774c.395-.774 1.118-1.038 1.882-1.038 1.071 0 2.152.65 2.177 1.812v.149c-.37-.213-1.181-.539-2.152-.539-1.979 0-3.985 1.1-3.985 3.162 0 1.888 1.623 3.1 3.43 3.1 1.388 0 2.152-.637 2.63-1.374h.074v1.088h1.993v-5.386c0-2.509-1.833-3.897-4.192-3.897Zm-.259 7.7c-.676 0-1.623-.336-1.623-1.2 0-1.088 1.181-1.5 2.188-1.5.911 0 1.341.198 1.882.473-.149 1.263-1.197 2.217-2.447 2.228Zm11.719-7.4-2.373 6.099h-.074l-2.459-6.1h-2.224l3.689 8.527-2.103 4.738h2.153l5.676-13.264h-2.285Zm-18.604 9h2.067V19.689h-2.067v14.06Z" clip-rule="evenodd"/><path fill="url(#a)" fill-rule="evenodd" d="M38.546 8.475c-.32.351-.505.887-.505 1.588V34.94c0 .7.185 1.237.516 1.573l.086.076 13.709-13.938v-.31L38.632 8.4l-.086.075Z" clip-rule="evenodd"/><path fill="url(#b)" fill-rule="evenodd" d="m56.912 27.311-4.572-4.648v-.326l4.572-4.648.1.061 5.408 3.125c1.548.887 1.548 2.352 0 3.25l-5.408 3.125-.1.061Z" clip-rule="evenodd"/><path fill="url(#c)" fill-rule="evenodd" d="m57.012 27.25-4.671-4.75-13.795 14.025c.505.55 1.352.611 2.298.075l16.168-9.35Z" clip-rule="evenodd"/><path fill="url(#d)" fill-rule="evenodd" d="M57.012 17.75 40.844 8.414c-.946-.55-1.796-.475-2.298.075L52.34 22.5l4.671-4.749Z" clip-rule="evenodd"/><path fill="#000" fill-rule="evenodd" d="m56.913 27.149-16.058 9.275c-.896.524-1.697.488-2.213.01l-.085.088.085.075c.516.475 1.316.514 2.213-.01l16.168-9.337-.11-.101Z" clip-rule="evenodd" opacity=".2"/><path fill="#000" fill-rule="evenodd" d="M62.421 23.962 56.9 27.149l.1.1 5.408-3.125c.776-.448 1.157-1.038 1.157-1.624-.047.539-.442 1.05-1.143 1.462Z" clip-rule="evenodd" opacity=".12"/><path fill="#fff" fill-rule="evenodd" d="M40.845 8.576 62.42 21.038c.701.401 1.096.926 1.156 1.462 0-.586-.38-1.175-1.156-1.624L40.845 8.414c-1.548-.9-2.804-.15-2.804 1.65v.162c0-1.801 1.256-2.539 2.804-1.65Z" clip-rule="evenodd" opacity=".25"/></symbol><symbol id="handset" viewBox="0 0 25 25">
<path d="M19.44 15.9036C18.449 15.3486 17.4399 15.694 17.0227 16.2392L16.15 17.3317C15.7067 17.8866 14.8781 17.8129 14.8781 17.8129C8.83172 16.2664 7.21479 10.1465 7.21479 10.1465C7.21479 10.1465 7.14056 9.31794 7.69425 8.8736L8.78558 8.00044C9.33124 7.58132 9.67629 6.57233 9.1206 5.5808C7.63607 2.98653 6.63904 2.09202 6.13149 1.40513C5.59786 0.758987 4.79542 0.613459 3.96088 1.05004H3.94282C2.20754 2.03187 0.307749 3.86939 0.915601 5.76125C1.95276 7.75595 3.85856 14.1145 9.93307 18.9189C12.7878 21.191 17.3055 23.5195 19.2234 24.057L19.2414 24.0841C21.1312 24.6934 22.9688 22.7841 23.9498 21.0552V21.0416C24.3851 20.2053 24.2407 19.4137 23.6047 18.8956C22.4773 17.8323 20.7761 16.6584 19.44 15.9036Z" fill="#1397D6"/>
</symbol><symbol id="kyivstar" viewBox="0 0 48 48">
  
  <path class="b" d="m3.5,19.3969l12.5275,4.0705" id="path6" style="stroke:#2a7fff"/>
  <path class="b" d="m24,4.5029v13.1727" id="path8" style="fill:#0066ff;stroke:#2a7fff"/>
  <path class="b" d="m31.9725,23.4676l12.5275-4.0705" id="path10" style="stroke:#2a7fff"/>
  <path class="b" d="m28.9268,32.84l7.7426,10.6571" id="path12" style="stroke:#2a7fff"/>
  <path class="b" d="m19.0732,32.84l-7.7426,10.6571" id="path14" style="stroke:#2a7fff"/>
  <path style="fill:#0066ff;stroke:#2a7fff;stroke-width:0.91638" d="m 396.10536,301.41571 c -4.51088,-2.62735 -4.35278,1.59643 -4.35278,-116.29082 0,-91.371953 0.21407,-110.552926 1.26185,-113.060604 2.67707,-6.407134 11.29407,-6.407134 13.97114,0 1.04778,2.507678 1.26185,21.688651 1.26185,113.060604 0,118.46403 0.18107,113.81517 -4.53114,116.33707 -2.21915,1.18764 -5.52694,1.16755 -7.61092,-0.0463 z" id="path961" transform="scale(0.06)"/>
  <path style="fill:#0066ff;stroke:#2a7fff;stroke-width:0.91638" d="m 527.67315,396.56357 c -2.75745,-3.06338 -3.16836,-5.03384 -1.75507,-8.41631 0.95247,-2.27958 2.27427,-3.4203 5.26008,-4.53947 7.35068,-2.75527 210.02012,-68.37297 211.17944,-68.37297 0.62941,0 2.41315,1.06759 3.96384,2.37241 5.1855,4.36331 3.33179,10.94166 -3.82277,13.56612 -15.30817,5.6154 -208.01193,67.45208 -210.20319,67.45208 -1.70801,0 -3.47644,-0.78883 -4.62233,-2.06186 z" id="path1000" transform="scale(0.06)"/>
  <path style="fill:#0066ff;stroke:#2a7fff;stroke-width:0.91638" d="M 164.49026,366.01819 C 109.80527,348.17228 62.830372,332.90163 60.101603,332.08343 c -2.728769,-0.8182 -5.924645,-2.45089 -7.101947,-3.62819 -4.026625,-4.02662 -1.939638,-11.41332 3.61219,-12.78501 1.283945,-0.31722 40.132519,11.86444 105.129274,32.96516 56.70103,18.40757 104.88736,34.14306 107.08072,34.96775 2.98336,1.12173 4.3084,2.26641 5.26008,4.54412 2.18383,5.22663 -1.33169,10.53386 -6.8877,10.39811 -1.80218,-0.044 -48.01896,-14.68126 -102.70396,-32.52718 z" id="path1039" transform="scale(0.06)"/>
  <path style="fill:#0066ff;stroke:#2a7fff;stroke-width:0.91638" d="m 185.84953,732.1988 c -2.88189,-1.18915 -5.14169,-5.06766 -4.67722,-8.02755 0.38651,-2.46307 128.19884,-179.51785 131.97383,-182.81959 2.10491,-1.84102 6.90519,-2.06883 9.04095,-0.42905 1.92902,1.48106 3.58611,4.68641 3.58611,6.93671 0,1.63904 -126.75905,177.42515 -131.39167,182.21051 -2.32529,2.40196 -5.78078,3.2642 -8.532,2.12897 z" id="path1078" transform="scale(0.06)"/>
  <path style="fill:#0055d4;stroke:#2a7fff;stroke-width:0.91638" d="M 608.07049,731.96633 C 606.05852,730.9282 477.27606,555.02012 474.94418,550.12485 c -3.15246,-6.6179 6.35781,-13.62087 11.91429,-8.77319 1.01098,0.88202 31.03399,41.80985 66.71782,90.95075 45.2564,62.32348 64.98931,90.20321 65.24217,92.17769 0.6918,5.40222 -5.89514,9.9902 -10.74797,7.48623 z" id="path1117" transform="scale(0.06)"/>
  <path style="fill:#2a7fff;stroke:#2a7fff;stroke-width:0.91638" d="m 395.9784,300.12062 c -1.3763,-1.04194 -1.90189,-3.20118 -2.56698,-10.54571 -0.46541,-5.13955 -0.71391,-55.04273 -0.5603,-112.5209 0.2221,-83.105369 0.51072,-103.696814 1.47722,-105.391117 2.51208,-4.403728 8.83124,-4.403728 11.34332,0 0.97222,1.704329 1.20119,22.980012 1.20119,111.613167 0,60.22909 -0.31613,110.99077 -0.70251,112.80372 -1.02667,4.81722 -6.36876,6.93522 -10.19194,4.04084 z" id="path1306" transform="scale(0.06)"/>
  <path style="fill:#2a7fff;stroke:#2a7fff;stroke-width:0.91638" d="m 528.45298,395.58813 c -2.47247,-2.63182 -2.56285,-6.47253 -0.20774,-8.82765 1.09509,-1.09508 17.47282,-6.91583 42.38259,-15.06303 43.09429,-14.09479 125.8274,-40.8783 153.31261,-49.63248 9.07216,-2.88953 16.95256,-5.42418 17.512,-5.63254 1.77878,-0.6625 6.77207,4.28852 6.77207,6.71474 0,4.55258 -3.18711,6.1345 -30.75094,15.26318 -56.96927,18.86727 -183.72729,59.2987 -185.90948,59.2987 -0.61524,0 -2.01524,-0.95441 -3.11111,-2.12092 z" id="path1345" transform="scale(0.06)"/>
  <path style="fill:#2a7fff;stroke:#2a7fff;stroke-width:0.91638" d="m 609.85109,731.49145 c -1.69953,-0.41187 -2.55513,-1.51967 -31.66556,-40.9989 -55.38452,-75.11186 -100.72764,-137.68763 -102.34972,-141.24771 -1.29791,-2.84859 0.43985,-6.23528 3.94423,-7.68685 5.29984,-2.19526 1.68312,-6.66131 64.21081,79.28966 51.96809,71.43569 74.10766,102.71155 74.10766,104.68954 0,1.52443 -3.52396,5.48566 -5.24708,5.89816 -0.89417,0.21407 -2.24433,0.23931 -3.00034,0.0561 z" id="path1384" transform="scale(0.06)"/>
  <path style="fill:#2a7fff;stroke:#2a7fff;stroke-width:0.91638" d="m 184.644,729.57307 c -1.50838,-1.50838 -2.73346,-3.2897 -2.72241,-3.95848 0.0291,-1.76196 32.77613,-47.90335 87.36143,-123.09454 37.11367,-51.12405 44.57121,-60.90286 46.88964,-61.48475 3.24452,-0.81433 5.80098,0.37729 7.38626,3.44287 1.74779,3.37985 4.05356,-0.31326 -26.51182,42.46341 -50.5086,70.68747 -101.89806,141.23565 -104.21824,143.07227 -3.14656,2.49077 -5.37322,2.37086 -8.18486,-0.44078 z" id="path1423" transform="scale(0.06)"/>
  <path style="fill:#2a7fff;stroke:#2a7fff;stroke-width:0.91638" d="m 265.75029,397.24953 c -0.50401,-0.17315 -10.40092,-3.2603 -21.99313,-6.86033 -41.81927,-12.98724 -185.171762,-59.77201 -187.852923,-61.30802 -3.688311,-2.11299 -4.974124,-5.85372 -3.127201,-9.09774 1.162245,-2.04142 2.010736,-2.44462 5.009834,-2.38062 4.919251,0.10498 41.534798,11.61409 163.51897,51.3978 49.70952,16.21217 50.56612,16.53794 51.65721,19.64503 1.19595,3.40571 0.0889,6.74108 -2.65201,7.98992 -2.40296,1.09486 -2.94758,1.16817 -4.56075,0.61396 z" id="path1462" transform="scale(0.06)"/>
  <path style="fill:#2a7fff;stroke:#2a7fff;stroke-width:0.91638" d="m 529.20513,394.49694 c -1.79192,-1.90742 -2.02208,-2.73987 -1.31321,-4.74976 0.72976,-2.06911 2.4504,-3.02276 11.39789,-6.31722 10.33847,-3.80662 80.09513,-26.66199 161.73077,-52.99015 l 41.22677,-13.29597 2.56706,2.45939 c 6.15987,5.90154 2.4203,7.88516 -43.32529,22.98145 -46.59803,15.37759 -156.43887,50.42915 -168.67533,53.82636 -0.78977,0.21926 -2.41366,-0.64208 -3.60866,-1.9141 z" id="path1501" transform="scale(0.06)"/>
  <path style="fill:#2a7fff;stroke:#2a7fff;stroke-width:0.91638" d="M 247.88087,390.72484 C 194.44809,373.78396 81.01843,336.88201 64.776254,331.15561 54.158838,327.41229 51.626642,325.17449 53.458612,321.15376 c 2.237809,-4.91146 2.458897,-4.84864 139.427318,39.61493 35.02197,11.36906 66.88369,21.8958 70.80381,23.39275 6.81807,2.60358 8.9334,4.38681 8.9334,7.53089 0,1.74161 -3.22385,5.12189 -4.811,5.04445 -0.63001,-0.0308 -9.59908,-2.73612 -19.93127,-6.01194 z" id="path1725" transform="scale(0.06)"/>
  <path style="fill:#2a7fff;stroke:#2a7fff;stroke-width:0.91638" d="" id="path1764" transform="scale(0.06)"/>
</symbol><symbol id="lifecell" viewBox="0 0 48 48">
  
  <path class="b" d="m33.5489,43.5395c29.1594-18.7286-1.2486-56.1858-25.1795-35.1681-2.4919,2.4701-3.6115,4.3325-4.37,6.0348-1.6429,3.8456-1.9592,6.3802-.8324,7.4914.3715.0489.7471-.078,1.0405-.4162.5723-.7283,1.1175-1.3922,1.6648-1.8729,2.289-2.2891,5.2024-4.266,8.74-5.8267.5452-.3923.8303-1.0051.9364-1.7688,1.1445-4.7862,7.8036-4.7862,9.3643,0,.2081.6763.2081,1.5607,0,2.289-.7897,2.8343-2.6751,3.6458-4.8902,3.8498-1.5607-.104-2.2891-.4162-3.2255-1.3526-.5733-.3735-.9-.1623-1.2486,0-1.5545,1.1404-2.853,2.5627-3.9538,4.0579-2.6418,3.2286-4.2087,6.8006-5.2024,10.6129-.2435,1.362-.3101,2.7926,0,4.37,1.2486,3.3295,3.8498,3.2255,5.5145,0,4.4647-6.6643,10.4838-10.8366,17.6881-13.11.7283-.3121,1.1445-1.1445,1.3006-2.185,1.6127-4.0579,7.3874-3.8498,8.8441,0,.5036,1.2486.4849,2.4971-.052,3.7457-.8053,1.8489-2.2662,2.7656-4.266,2.9133-.9999-.0302-1.8427-.3111-2.6012-.7283-.7283-.6763-2.0289-.7283-3.0174,0-5.9026,3.3274-9.4704,8.1022-11.6533,13.7343-1.0217,3.3555-.1425,5.6051,4.5781,5.6186,3.3639.1342,6.9004-.3694,10.821-2.2891Z" id="path6" style="stroke:#ffcc00"/>
</symbol><symbol id="load" viewBox="0 0 24 25">
<g id="paperclip 1">
<path id="Vector" d="M18.0836 13.3523L11.9036 19.5423C11.0934 20.2624 10.0387 20.6456 8.9553 20.6137C7.87188 20.5818 6.84158 20.1372 6.07515 19.3708C5.30872 18.6043 4.86409 17.574 4.83219 16.4906C4.8003 15.4072 5.18356 14.3525 5.90358 13.5423L13.9036 5.54234C14.3812 5.08864 15.0148 4.83567 15.6736 4.83567C16.3323 4.83567 16.966 5.08864 17.4436 5.54234C17.9089 6.01393 18.1698 6.64981 18.1698 7.31234C18.1698 7.97487 17.9089 8.61075 17.4436 9.08234L10.5436 15.9723C10.4753 16.0459 10.3932 16.1053 10.302 16.1471C10.2107 16.1889 10.1121 16.2123 10.0119 16.216C9.91158 16.2197 9.81154 16.2037 9.71746 16.1687C9.62339 16.1338 9.53712 16.0806 9.46358 16.0123C9.39004 15.9441 9.33067 15.8619 9.28886 15.7707C9.24705 15.6795 9.22362 15.5809 9.2199 15.4806C9.21619 15.3803 9.23226 15.2803 9.26721 15.1862C9.30216 15.0922 9.35529 15.0059 9.42358 14.9323L14.5536 9.81234C14.7419 9.62404 14.8477 9.36864 14.8477 9.10234C14.8477 8.83604 14.7419 8.58064 14.5536 8.39234C14.3653 8.20404 14.1099 8.09825 13.8436 8.09825C13.5773 8.09825 13.3219 8.20404 13.1336 8.39234L8.00358 13.5323C7.74688 13.787 7.54314 14.09 7.40411 14.4239C7.26507 14.7577 7.19349 15.1157 7.19349 15.4773C7.19349 15.839 7.26507 16.197 7.40411 16.5308C7.54314 16.8646 7.74688 17.1676 8.00358 17.4223C8.52795 17.9218 9.22439 18.2004 9.94858 18.2004C10.6728 18.2004 11.3692 17.9218 11.8936 17.4223L18.7836 10.5223C19.5785 9.66929 20.0112 8.54101 19.9906 7.37521C19.9701 6.2094 19.4978 5.09709 18.6733 4.27261C17.8488 3.44813 16.7365 2.97586 15.5707 2.95529C14.4049 2.93472 13.2766 3.36746 12.4236 4.16234L4.42358 12.1623C3.34478 13.3572 2.76861 14.9222 2.81511 16.5313C2.86162 18.1404 3.52721 19.6696 4.67322 20.8001C5.81922 21.9306 7.35725 22.5754 8.96686 22.6C10.5765 22.6247 12.1335 22.0273 13.3136 20.9323L19.5036 14.7523C19.5968 14.6591 19.6708 14.5484 19.7212 14.4266C19.7717 14.3048 19.7977 14.1742 19.7977 14.0423C19.7977 13.9105 19.7717 13.7799 19.7212 13.6581C19.6708 13.5363 19.5968 13.4256 19.5036 13.3323C19.4103 13.2391 19.2996 13.1651 19.1778 13.1147C19.056 13.0642 18.9254 13.0382 18.7936 13.0382C18.6617 13.0382 18.5312 13.0642 18.4093 13.1147C18.2875 13.1651 18.1768 13.2391 18.0836 13.3323V13.3523Z" fill="#1397D6"/>
</g>
</symbol><symbol id="marker-time" viewBox="0 0 24 24">
<g clip-path="url(#clip0_206_135807)">
<path d="M12.0022 5.99991C11.0133 5.99991 10.0466 6.29315 9.22437 6.84256C8.40213 7.39196 7.76126 8.17286 7.38283 9.08649C7.00439 10.0001 6.90537 11.0055 7.0983 11.9754C7.29122 12.9453 7.76743 13.8362 8.46669 14.5354C9.16595 15.2347 10.0569 15.7109 11.0268 15.9038C11.9967 16.0968 13.002 15.9977 13.9156 15.6193C14.8293 15.2409 15.6102 14.6 16.1596 13.7778C16.709 12.9555 17.0022 11.9888 17.0022 10.9999C17.0006 9.67431 16.4733 8.40346 15.536 7.46613C14.5987 6.52879 13.3278 6.00149 12.0022 5.99991ZM13.7092 12.7069C13.5217 12.8944 13.2674 12.9997 13.0022 12.9997C12.7371 12.9997 12.4828 12.8944 12.2952 12.7069L11.2952 11.7069C11.1077 11.5194 11.0023 11.2651 11.0022 10.9999V8.99991C11.0022 8.73469 11.1076 8.48034 11.2951 8.2928C11.4827 8.10526 11.737 7.99991 12.0022 7.99991C12.2674 7.99991 12.5218 8.10526 12.7093 8.2928C12.8969 8.48034 13.0022 8.73469 13.0022 8.99991V10.5859L13.7092 11.2929C13.8967 11.4804 14.002 11.7347 14.002 11.9999C14.002 12.2651 13.8967 12.5194 13.7092 12.7069ZM19.7792 3.2219C18.7609 2.1804 17.5458 1.35152 16.2046 0.783372C14.8633 0.21522 13.4226 -0.0808878 11.966 -0.0877679C10.5094 -0.094648 9.06596 0.187837 7.7194 0.743293C6.37285 1.29875 5.15003 2.11611 4.1219 3.14795C3.09377 4.17979 2.28081 5.40554 1.73021 6.75409C1.17961 8.10263 0.90232 9.5471 0.914444 11.0037C0.926568 12.4602 1.22786 13.8999 1.80084 15.2391C2.37381 16.5783 3.20706 17.7903 4.25222 18.8049L8.19422 22.4479C9.20825 23.4394 10.5691 23.9962 11.9874 23.9997C13.4056 24.0033 14.7692 23.4534 15.7882 22.4669L19.7792 18.7779C21.842 16.715 23.0009 13.9172 23.0009 10.9999C23.0009 8.08261 21.842 5.28479 19.7792 3.2219ZM12.0022 17.9999C10.6178 17.9999 9.26438 17.5894 8.11323 16.8202C6.96209 16.051 6.06488 14.9578 5.53507 13.6787C5.00525 12.3996 4.86663 10.9921 5.13673 9.63427C5.40682 8.27641 6.07351 7.02913 7.05248 6.05016C8.03144 5.07119 9.27872 4.4045 10.6366 4.13441C11.9945 3.86431 13.4019 4.00293 14.681 4.53275C15.9601 5.06256 17.0533 5.95977 17.8225 7.11091C18.5917 8.26206 19.0022 9.61544 19.0022 10.9999C19.0001 12.8558 18.2619 14.635 16.9496 15.9473C15.6373 17.2596 13.8581 17.9978 12.0022 17.9999Z" fill="white"/>
</g>

</symbol><symbol id="modal_close" viewBox="0 0 30 30">
<path d="M17.7488 15.0002L29.4305 3.31823C30.1907 2.55836 30.1907 1.32976 29.4305 0.569899C28.6706 -0.189966 27.442 -0.189966 26.6821 0.569899L15.0001 12.2519L3.31849 0.569899C2.55827 -0.189966 1.33003 -0.189966 0.570166 0.569899C-0.190055 1.32976 -0.190055 2.55836 0.570166 3.31823L12.2518 15.0002L0.570166 26.6822C-0.190055 27.4421 -0.190055 28.6707 0.570166 29.4305C0.948853 29.8096 1.44677 30 1.94433 30C2.44189 30 2.93945 29.8096 3.31849 29.4305L15.0001 17.7486L26.6821 29.4305C27.0612 29.8096 27.5587 30 28.0563 30C28.5539 30 29.0514 29.8096 29.4305 29.4305C30.1907 28.6707 30.1907 27.4421 29.4305 26.6822L17.7488 15.0002Z" fill="white" fill-opacity="0.3"/>
</symbol><symbol id="phone" viewBox="0 0 26 26">
<path d="M19.941 16.4034C18.95 15.8484 17.9409 16.1938 17.5236 16.739L16.651 17.8315C16.2076 18.3864 15.3791 18.3127 15.3791 18.3127C9.33269 16.7662 7.71577 10.6463 7.71577 10.6463C7.71577 10.6463 7.64154 9.81776 8.19523 9.37342L9.28655 8.50025C9.83221 8.08113 10.1773 7.07214 9.62157 6.08062C8.13705 3.48634 7.14001 2.59184 6.63247 1.90495C6.09884 1.2588 5.2964 1.11328 4.46185 1.54986H4.4438C2.70851 2.53168 0.808725 4.36921 1.41658 6.26107C2.45374 8.25577 4.35954 14.6143 10.434 19.4187C13.2887 21.6909 17.8065 24.0193 19.7243 24.5568L19.7424 24.584C21.6322 25.1932 23.4698 23.2839 24.4507 21.555V21.5415C24.8861 20.7052 24.7416 19.9135 24.1057 19.3954C22.9783 18.3321 21.2771 17.1582 19.941 16.4034Z" fill="#1397D6"/>
</symbol><symbol id="play" viewBox="0 0 27 32">
<path d="M27 16L0 31.5885L0 0.411543L27 16Z" fill="currentColor"/>
</symbol><symbol id="point" viewBox="0 0 26 38">
<path d="M12.9998 0C9.55325 0.00412373 6.24896 1.45541 3.81186 4.03546C1.37477 6.61551 0.00389524 10.1136 0 13.7624C0 23.1801 11.6336 37.0059 12.129 37.5889C12.2388 37.7183 12.3731 37.8217 12.5232 37.8926C12.6732 37.9634 12.8357 38 13 38C13.1643 38 13.3268 37.9634 13.4768 37.8926C13.6269 37.8217 13.7612 37.7183 13.871 37.5889C14.3664 37.0048 26 23.1793 26 13.7624C25.996 10.1136 24.6251 6.61548 22.1879 4.03544C19.7508 1.4554 16.4464 0.00412354 12.9998 0V0ZM12.9998 20.6865C11.7062 20.6865 10.4417 20.2804 9.36613 19.5196C8.29055 18.7587 7.45225 17.6773 6.95721 16.4121C6.46218 15.1469 6.33266 13.7547 6.58502 12.4115C6.83739 11.0684 7.46031 9.83463 8.37501 8.86627C9.28971 7.89792 10.4551 7.23846 11.7238 6.97129C12.9926 6.70412 14.3076 6.84124 15.5027 7.36531C16.6979 7.88938 17.7193 8.77686 18.438 9.91553C19.1567 11.0542 19.5403 12.3929 19.5403 13.7624C19.5383 15.5981 18.8486 17.3581 17.6224 18.6561C16.3963 19.9542 14.7339 20.6844 12.9998 20.6865Z" fill="#1397D6"/>
</symbol><symbol id="search" viewBox="0 0 32 32">
	<path fill-rule="evenodd" clip-rule="evenodd" d="M21.7668 19.8653L28.9401 27.0387C29.1922 27.291 29.3338 27.6331 29.3337 27.9898C29.3336 28.3465 29.1917 28.6885 28.9394 28.9407C28.6871 29.1928 28.345 29.3344 27.9883 29.3342C27.6316 29.3341 27.2896 29.1923 27.0374 28.94L19.8641 21.7667C17.7197 23.4276 15.0231 24.2092 12.3229 23.9525C9.62273 23.6958 7.12174 22.42 5.32874 20.3848C3.53574 18.3496 2.58542 15.7077 2.6711 12.9967C2.75678 10.2857 3.87203 7.70913 5.78997 5.79119C7.70791 3.87325 10.2845 2.758 12.9955 2.67232C15.7065 2.58664 18.3484 3.53696 20.3836 5.32996C22.4188 7.12296 23.6945 9.62395 23.9512 12.3242C24.2079 15.0244 23.4263 17.7209 21.7654 19.8653H21.7668ZM13.3334 21.3333C15.4552 21.3333 17.49 20.4905 18.9903 18.9902C20.4906 17.4899 21.3334 15.4551 21.3334 13.3333C21.3334 11.2116 20.4906 9.17676 18.9903 7.67646C17.49 6.17617 15.4552 5.33332 13.3334 5.33332C11.2117 5.33332 9.17687 6.17617 7.67658 7.67646C6.17629 9.17676 5.33343 11.2116 5.33343 13.3333C5.33343 15.4551 6.17629 17.4899 7.67658 18.9902C9.17687 20.4905 11.2117 21.3333 13.3334 21.3333Z" fill="currentColor"/>
</symbol><symbol id="soc_facebook" viewBox="0 0 55 54">
<rect x="0.5" width="54" height="54" rx="10" fill="#0B84EE"/>
<path fill-rule="evenodd" clip-rule="evenodd" d="M26.6926 14.0391C21.8135 14.5111 17.6534 17.3106 15.6719 21.4554C13.8521 25.2618 14.1658 29.6107 16.5147 33.1436C17.2338 34.225 17.9646 35.0115 19.3811 36.2284L19.5626 36.3842L19.5635 38.5159C19.5645 40.7881 19.5862 40.9574 19.8803 40.9996C19.9783 41.0137 20.7623 40.6102 22.1552 39.8289L24.2805 38.6367L25.0414 38.7915C27.7219 39.3367 30.5899 39.1236 33.071 38.1947C35.0162 37.4665 36.6547 36.3894 38.1042 34.8861C39.8489 33.0766 40.9176 31.0165 41.3838 28.5642C41.472 28.1 41.4999 27.6128 41.5 26.5321C41.5001 25.3124 41.4786 25.0035 41.3486 24.3553C40.4959 20.1053 37.4815 16.637 33.1594 14.9329C32.3852 14.6278 31.0401 14.2787 30.0983 14.1388C29.2177 14.0079 27.5271 13.9584 26.6926 14.0391ZM28.1826 25.0941C29.6605 26.672 29.8553 26.8557 30.0561 26.8604C30.1116 26.8617 31.3256 26.2256 32.7539 25.4468C34.1822 24.668 35.3913 24.0464 35.4408 24.0655C35.4903 24.0845 35.5308 24.1578 35.5308 24.2283C35.5308 24.3781 29.6468 30.6711 29.4475 30.7344C29.3767 30.757 29.2541 30.7584 29.175 30.7377C29.096 30.7169 28.4672 30.1017 27.7776 29.3706C26.2187 27.7175 25.9435 27.4577 25.7514 27.4579C25.6682 27.4579 24.4149 28.0989 22.9664 28.8822C21.5177 29.6655 20.2929 30.2912 20.2445 30.2726C20.1961 30.2539 20.1564 30.1793 20.1564 30.1069C20.1564 30.0238 21.2851 28.774 23.2034 26.7329C26.0157 23.7408 26.2671 23.4909 26.4658 23.4909C26.6616 23.4909 26.8166 23.6357 28.1826 25.0941Z" fill="white"/>
</symbol><symbol id="soc_telegram" viewBox="0 0 55 54">
<rect x="0.5" width="54" height="54" rx="10" fill="#55ACE3"/>
<path d="M38.3004 17.013L34.2431 38.1945C34.2431 38.1945 33.6754 39.6631 32.1159 38.9588L22.7546 31.5259L22.7112 31.504C23.9757 30.3282 33.7811 21.1985 34.2097 20.7847C34.8731 20.1438 34.4612 19.7622 33.691 20.2464L19.2071 29.7715L13.6192 27.8245C13.6192 27.8245 12.7398 27.5006 12.6552 26.7962C12.5695 26.0908 13.6481 25.7092 13.6481 25.7092L36.4281 16.455C36.4281 16.455 38.3004 15.6032 38.3004 17.013Z" fill="white"/>
</symbol><symbol id="soc_viber" viewBox="0 0 55 54">
<rect x="0.5" width="54" height="54" rx="10" fill="#7C509A"/>
<path d="M35.9428 12.887C30.7973 11.9044 25.4538 11.9044 20.3082 12.887C18.0323 13.3783 15.1627 16.1297 14.6679 18.2916C13.7774 22.5169 13.7774 26.8406 14.6679 31.0659C15.2616 33.2278 18.1313 35.9792 20.3082 36.4705C20.4072 36.4705 20.5061 36.5687 20.5061 36.667V42.8577C20.5061 43.1525 20.902 43.349 21.0999 43.0542L24.0685 40.008C24.0685 40.008 26.4433 37.5514 26.8391 37.1583C26.8391 37.1583 26.9381 37.0601 27.037 37.0601C30.0056 37.1583 33.0732 36.8635 36.0418 36.3722C38.3177 35.8809 41.1873 33.1295 41.6821 30.9677C42.5726 26.7423 42.5726 22.4187 41.6821 18.1933C41.0883 16.1297 38.2187 13.3783 35.9428 12.887ZM36.0418 31.3607C35.547 32.3434 34.9533 33.1295 33.9637 33.6208C33.6669 33.7191 33.37 33.8173 33.0732 33.9156C32.6774 33.8173 32.3805 33.7191 32.0836 33.6208C28.9171 32.3434 25.9486 30.5746 23.5737 28.0197C22.2873 26.5458 21.1988 24.8753 20.3082 23.1065C19.9124 22.2221 19.5166 21.436 19.2198 20.5516C18.9229 19.7655 19.4177 18.9794 19.9124 18.3898C20.4072 17.8002 21.0009 17.4072 21.6936 17.1124C22.1884 16.8176 22.6831 17.0141 23.0789 17.4072C23.8706 18.3898 24.6622 19.3725 25.2559 20.4534C25.6517 21.1412 25.5527 21.9273 24.8601 22.4187C24.6622 22.5169 24.5632 22.6152 24.3653 22.8117C24.2664 22.91 24.0685 23.0082 23.9695 23.2048C23.7716 23.4996 23.7716 23.7944 23.8705 24.0892C24.6622 26.3492 26.1465 28.118 28.4224 29.1006C28.8182 29.2972 29.1151 29.3954 29.6098 29.3954C30.3025 29.2972 30.5993 28.5111 31.0941 28.118C31.5889 27.7249 32.1826 27.7249 32.7763 28.0197C33.2711 28.3145 33.7658 28.7076 34.3596 29.1006C34.8543 29.4937 35.3491 29.7885 35.8438 30.1816C36.1407 30.3781 36.2397 30.8694 36.0418 31.3607ZM31.8857 23.9909C31.6878 23.9909 31.7868 23.9909 31.8857 23.9909C31.4899 23.9909 31.391 23.7944 31.292 23.4996C31.292 23.303 31.292 23.0082 31.1931 22.8117C31.0941 22.4187 30.8962 22.0256 30.5004 21.7308C30.3025 21.6325 30.1046 21.5343 29.9067 21.436C29.6098 21.3378 29.4119 21.3378 29.1151 21.3378C28.8182 21.2395 28.7192 21.043 28.7192 20.7482C28.7192 20.5516 29.0161 20.3551 29.214 20.3551C30.7973 20.4534 31.9847 21.3378 32.1826 23.2048C32.1826 23.303 32.1826 23.4996 32.1826 23.5978C32.1826 23.7944 32.0836 23.9909 31.8857 23.9909ZM30.8962 19.6673C30.4014 19.4707 29.9067 19.2742 29.313 19.1759C29.115 19.1759 28.8182 19.0777 28.6203 19.0777C28.3234 19.0777 28.1255 18.8811 28.2245 18.5863C28.2245 18.2916 28.4224 18.095 28.7192 18.1933C29.7088 18.2916 30.5993 18.4881 31.4899 18.8811C33.2711 19.7655 34.2606 21.2395 34.5575 23.2048C34.5575 23.303 34.5575 23.4013 34.5575 23.4996C34.5575 23.6961 34.5575 23.8926 34.5575 24.1874C34.5575 24.2857 34.5575 24.384 34.5575 24.4822C34.4585 24.8753 33.7658 24.9735 33.6669 24.4822C33.6669 24.384 33.5679 24.1874 33.5679 24.0892C33.5679 23.2048 33.37 22.3204 32.9742 21.5343C32.3805 20.6499 31.6878 20.0603 30.8962 19.6673ZM36.2397 25.5631C35.9428 25.5631 35.7449 25.2683 35.7449 24.9735C35.7449 24.384 35.6459 23.7944 35.547 23.2048C35.1512 20.0603 32.5784 17.5054 29.5109 17.0141C29.0161 16.9159 28.5213 16.9159 28.1255 16.8176C27.8287 16.8176 27.4329 16.8176 27.3339 16.4245C27.2349 16.1297 27.5318 15.8349 27.8287 15.8349C27.9276 15.8349 28.0266 15.8349 28.0266 15.8349C28.2245 15.8349 32.0836 15.9332 28.0266 15.8349C32.1826 15.9332 35.6459 18.6846 36.3386 22.8117C36.4376 23.4996 36.5365 24.1874 36.5365 24.9735C36.7344 25.2683 36.5365 25.5631 36.2397 25.5631Z" fill="white"/>
</symbol><symbol id="soc_whatsapp" viewBox="0 0 55 54">
<rect x="0.5" width="54" height="54" rx="10" fill="#48C95F"/>
<path d="M38.2012 16.2844C35.5341 13.6266 31.978 12.15 28.2244 12.15C20.4207 12.15 14.0988 18.45 14.0988 26.2266C14.0988 28.6875 14.7902 31.1485 15.9756 33.2156L14 40.5L21.5073 38.5313C23.5817 39.6141 25.8537 40.2047 28.2244 40.2047C36.028 40.2047 42.35 33.9047 42.35 26.1282C42.2512 22.486 40.8683 18.9422 38.2012 16.2844ZM35.0402 31.2469C34.7439 32.0344 33.361 32.8219 32.6695 32.9203C32.0768 33.0188 31.2866 33.0188 30.4963 32.8219C30.0024 32.625 29.311 32.4282 28.5207 32.0344C24.9646 30.5578 22.6927 27.0141 22.4951 26.7188C22.2976 26.5219 21.0134 24.8485 21.0134 23.0766C21.0134 21.3047 21.9024 20.5172 22.1988 20.1235C22.4951 19.7297 22.8902 19.7297 23.1866 19.7297C23.3841 19.7297 23.6805 19.7297 23.878 19.7297C24.0756 19.7297 24.3719 19.6313 24.6683 20.3203C24.9646 21.0094 25.6561 22.7813 25.7549 22.8797C25.8537 23.0766 25.8537 23.2735 25.7549 23.4703C25.6561 23.6672 25.5573 23.8641 25.3598 24.061C25.1622 24.2578 24.9646 24.5531 24.8658 24.6516C24.6683 24.8485 24.4707 25.0453 24.6683 25.3406C24.8659 25.7344 25.5573 26.8172 26.6439 27.8016C28.0268 28.9828 29.1134 29.3766 29.5085 29.5735C29.9037 29.7703 30.1012 29.6719 30.2988 29.475C30.4963 29.2781 31.1878 28.4907 31.3854 28.0969C31.5829 27.7032 31.8793 27.8016 32.1756 27.9C32.4719 27.9985 34.25 28.8844 34.5463 29.0813C34.9415 29.2782 35.139 29.3766 35.2378 29.475C35.3366 29.7703 35.3366 30.4594 35.0402 31.2469Z" fill="white"/>
</symbol><symbol id="social" viewBox="0 0 19 17">
<path d="M19 0.602225L15.9946 16.2923C15.9946 16.2923 15.5741 17.3801 14.4189 16.8584L7.48458 11.3526L7.45242 11.3364C8.38909 10.4654 15.6524 3.70266 15.9698 3.39612C16.4613 2.92136 16.1562 2.63873 15.5856 2.99736L4.85679 10.053L0.717638 8.61077C0.717638 8.61077 0.0662573 8.37083 0.00359284 7.84911C-0.0598962 7.32653 0.739076 7.0439 0.739076 7.0439L17.6131 0.188948C17.6131 0.188948 19 -0.44207 19 0.602225Z" fill="currentColor"/>
</symbol><symbol id="social2" viewBox="0 0 20 20">
<path d="M10 1.80723C12.6506 1.80723 13.0121 1.80723 14.0964 1.80723C15.0602 1.80723 15.5422 2.04819 15.9036 2.16868C16.3855 2.40964 16.747 2.53012 17.1084 2.89157C17.4699 3.25301 17.7108 3.61446 17.8313 4.09639C17.9518 4.45783 18.0723 4.93976 18.1928 5.90362C18.1928 6.98795 18.1928 7.22892 18.1928 10C18.1928 12.7711 18.1928 13.0121 18.1928 14.0964C18.1928 15.0602 17.9518 15.5422 17.8313 15.9036C17.5904 16.3855 17.4699 16.747 17.1084 17.1084C16.747 17.4699 16.3855 17.7108 15.9036 17.8313C15.5422 17.9518 15.0602 18.0723 14.0964 18.1928C13.0121 18.1928 12.7711 18.1928 10 18.1928C7.22892 18.1928 6.98795 18.1928 5.90362 18.1928C4.93976 18.1928 4.45783 17.9518 4.09639 17.8313C3.61446 17.5904 3.25301 17.4699 2.89157 17.1084C2.53012 16.747 2.28916 16.3855 2.16868 15.9036C2.04819 15.5422 1.92771 15.0602 1.80723 14.0964C1.80723 13.0121 1.80723 12.7711 1.80723 10C1.80723 7.22892 1.80723 6.98795 1.80723 5.90362C1.80723 4.93976 2.04819 4.45783 2.16868 4.09639C2.40964 3.61446 2.53012 3.25301 2.89157 2.89157C3.25301 2.53012 3.61446 2.28916 4.09639 2.16868C4.45783 2.04819 4.93976 1.92771 5.90362 1.80723C6.98795 1.80723 7.3494 1.80723 10 1.80723ZM10 0C7.22892 0 6.98795 0 5.90362 0C4.81928 0 4.09639 0.240965 3.49398 0.481928C2.89157 0.722892 2.28916 1.08434 1.68675 1.68675C1.08434 2.28916 0.843374 2.77109 0.481928 3.49398C0.240965 4.09639 0.120482 4.81928 0 5.90362C0 6.98795 0 7.3494 0 10C0 12.7711 0 13.0121 0 14.0964C0 15.1807 0.240965 15.9036 0.481928 16.506C0.722892 17.1084 1.08434 17.7108 1.68675 18.3133C2.28916 18.9157 2.77109 19.1566 3.49398 19.5181C4.09639 19.759 4.81928 19.8795 5.90362 20C6.98795 20 7.3494 20 10 20C12.6506 20 13.0121 20 14.0964 20C15.1807 20 15.9036 19.759 16.506 19.5181C17.1084 19.2771 17.7108 18.9157 18.3133 18.3133C18.9157 17.7108 19.1566 17.2289 19.5181 16.506C19.759 15.9036 19.8795 15.1807 20 14.0964C20 13.0121 20 12.6506 20 10C20 7.3494 20 6.98795 20 5.90362C20 4.81928 19.759 4.09639 19.5181 3.49398C19.2771 2.89157 18.9157 2.28916 18.3133 1.68675C17.7108 1.08434 17.2289 0.843374 16.506 0.481928C15.9036 0.240965 15.1807 0.120482 14.0964 0C13.0121 0 12.7711 0 10 0Z" fill="currentColor"/>
<path d="M10 4.81928C7.10843 4.81928 4.81928 7.10843 4.81928 10C4.81928 12.8916 7.10843 15.1807 10 15.1807C12.8916 15.1807 15.1807 12.8916 15.1807 10C15.1807 7.10843 12.8916 4.81928 10 4.81928ZM10 13.3735C8.19277 13.3735 6.62651 11.9277 6.62651 10C6.62651 8.19277 8.07229 6.62651 10 6.62651C11.8072 6.62651 13.3735 8.07229 13.3735 10C13.3735 11.8072 11.8072 13.3735 10 13.3735Z" fill="currentColor"/>
<path d="M15.3012 5.90362C15.9666 5.90362 16.506 5.3642 16.506 4.6988C16.506 4.03339 15.9666 3.49398 15.3012 3.49398C14.6358 3.49398 14.0964 4.03339 14.0964 4.6988C14.0964 5.3642 14.6358 5.90362 15.3012 5.90362Z" fill="currentColor"/>
</symbol><symbol id="social3" viewBox="0 0 12 23">
<path d="M7.65708 12.3648H11.3793L11.9637 8.56055H7.65632V6.48134C7.65632 4.90099 8.16957 3.49962 9.63891 3.49962H12V0.179741C11.5852 0.123382 10.7078 0 9.04996 0C5.58819 0 3.55867 1.8393 3.55867 6.0297V8.56055H0V12.3648H3.55867V22.821C4.26344 22.9276 4.97729 23 5.71007 23C6.37245 23 7.01893 22.9391 7.65708 22.8522V12.3648Z" fill="currentColor"/>
</symbol><symbol id="social4" viewBox="0 0 22 16">
<path fill-rule="evenodd" clip-rule="evenodd" d="M2.26249 15.0568C1.87023 14.9408 1.51232 14.7343 1.21896 14.4549C0.925599 14.1754 0.705403 13.8312 0.576947 13.4512C-0.157079 11.4874 -0.374569 3.28693 1.03911 1.66807C1.50961 1.14145 2.17389 0.817218 2.88777 0.765759C6.68024 0.36768 18.3975 0.420757 19.7432 0.898453C20.1217 1.01832 20.4675 1.22026 20.7547 1.48912C21.0419 1.75799 21.263 2.08681 21.4015 2.45096C22.2035 4.48117 22.2307 11.8589 21.2928 13.8095C21.044 14.3173 20.6275 14.7285 20.1102 14.9772C18.6965 15.6672 4.13833 15.6539 2.26249 15.0568ZM8.28422 11.2087L15.0808 7.75869L8.28422 4.28213V11.2087Z" fill="currentColor"/>
</symbol><symbol id="social5" viewBox="0 0 19 22">
<path d="M18.9764 5.25351C18.2865 5.25352 17.6033 5.11764 16.966 4.85363C16.3286 4.58962 15.7494 4.20265 15.2616 3.71482C14.7737 3.22698 14.3868 2.64784 14.1227 2.01045C13.8587 1.37306 13.7228 0.689907 13.7228 0H9.9695V14.6974C9.96878 15.3675 9.75719 16.0203 9.3647 16.5635C8.97222 17.1066 8.41875 17.5124 7.78275 17.7234C7.14675 17.9344 6.46047 17.9398 5.82119 17.739C5.18191 17.5382 4.62205 17.1412 4.22097 16.6044C3.81989 16.0676 3.59792 15.4182 3.58653 14.7482C3.57515 14.0782 3.77492 13.4217 4.15753 12.8715C4.54015 12.3214 5.0862 11.9057 5.71828 11.6833C6.35037 11.4608 7.03644 11.443 7.67924 11.6322V7.98372C6.31316 7.79951 4.9234 8.03645 3.69552 8.66289C2.46765 9.28933 1.46011 10.2755 0.807445 11.4896C0.154777 12.7037 -0.111954 14.0881 0.0428692 15.4578C0.197692 16.8275 0.7667 18.1174 1.67391 19.1552C2.58112 20.1931 3.78336 20.9294 5.12008 21.266C6.4568 21.6025 7.86439 21.5233 9.15489 21.0388C10.4454 20.5543 11.5574 19.6877 12.3423 18.5546C13.1273 17.4215 13.5479 16.0758 13.548 14.6974L13.6569 7.26826C15.1991 8.40038 17.0629 9.00954 18.976 9.0067L18.9764 5.25351Z" fill="currentColor"/>
</symbol><symbol id="star" viewBox="0 0 30 28">
<path d="M15 0L18.3677 10.3647H29.2658L20.4491 16.7705L23.8168 27.1353L15 20.7295L6.18322 27.1353L9.55093 16.7705L0.734152 10.3647H11.6323L15 0Z" fill="#FFC700"/>
</symbol><symbol id="stars_mode" viewBox="0 0 86 14">
<path d="M7 0L8.5716 4.83688H13.6574L9.5429 7.82624L11.1145 12.6631L7 9.67376L2.8855 12.6631L4.4571 7.82624L0.342604 4.83688H5.4284L7 0Z" fill="#FFD337"/>
<path d="M25 0L26.5716 4.83688H31.6574L27.5429 7.82624L29.1145 12.6631L25 9.67376L20.8855 12.6631L22.4571 7.82624L18.3426 4.83688H23.4284L25 0Z" fill="#FFD337"/>
<path d="M43 0L44.5716 4.83688H49.6574L45.5429 7.82624L47.1145 12.6631L43 9.67376L38.8855 12.6631L40.4571 7.82624L36.3426 4.83688H41.4284L43 0Z" fill="#FFD337"/>
<path d="M61 0L62.5716 4.83688H67.6574L63.5429 7.82624L65.1145 12.6631L61 9.67376L56.8855 12.6631L58.4571 7.82624L54.3426 4.83688H59.4284L61 0Z" fill="#FFD337"/>
<path d="M79 0L80.5716 4.83688H85.6574L81.5429 7.82624L83.1145 12.6631L79 9.67376L74.8855 12.6631L76.4571 7.82624L72.3426 4.83688H77.4284L79 0Z" fill="#F8F9FC"/>
</symbol><symbol id="stars" viewBox="0 0 86 14">
<path d="M7 0L8.5716 4.83688H13.6574L9.5429 7.82624L11.1145 12.6631L7 9.67376L2.8855 12.6631L4.4571 7.82624L0.342604 4.83688H5.4284L7 0Z" fill="#FFD337"/>
<path d="M25 0L26.5716 4.83688H31.6574L27.5429 7.82624L29.1145 12.6631L25 9.67376L20.8855 12.6631L22.4571 7.82624L18.3426 4.83688H23.4284L25 0Z" fill="#FFD337"/>
<path d="M43 0L44.5716 4.83688H49.6574L45.5429 7.82624L47.1145 12.6631L43 9.67376L38.8855 12.6631L40.4571 7.82624L36.3426 4.83688H41.4284L43 0Z" fill="#FFD337"/>
<path d="M61 0L62.5716 4.83688H67.6574L63.5429 7.82624L65.1145 12.6631L61 9.67376L56.8855 12.6631L58.4571 7.82624L54.3426 4.83688H59.4284L61 0Z" fill="#FFD337"/>
<path d="M79 0L80.5716 4.83688H85.6574L81.5429 7.82624L83.1145 12.6631L79 9.67376L74.8855 12.6631L76.4571 7.82624L72.3426 4.83688H77.4284L79 0Z" fill="#FFD337"/>
</symbol><symbol id="transparent_phone" viewBox="0 0 28 28">
<path d="M7.67605 11.1838C7.19264 11.3116 7.1927 11.3118 7.19277 11.312L7.19294 11.3127L7.19343 11.3145L7.19495 11.3202L7.20022 11.3393C7.20473 11.3554 7.21127 11.3784 7.21993 11.4079C7.23726 11.4667 7.26312 11.5512 7.29834 11.6583C7.36876 11.8724 7.47674 12.1772 7.62903 12.5473C7.93332 13.2866 8.41627 14.291 9.13304 15.3558C10.5666 17.4854 12.9509 19.8772 16.722 20.8417L16.7612 20.8517L16.8015 20.8553L16.8459 20.3573C16.8015 20.8553 16.8017 20.8553 16.8019 20.8554L16.8023 20.8554L16.8031 20.8555L16.8051 20.8556L16.8101 20.856L16.8244 20.8571C16.8299 20.8574 16.8363 20.8578 16.8434 20.8582C16.8512 20.8586 16.86 20.859 16.8697 20.8594C16.9068 20.8609 16.9577 20.8619 17.0195 20.8606C17.1421 20.858 17.3118 20.8464 17.5031 20.8093C17.877 20.7367 18.3895 20.5553 18.7584 20.0936L18.7584 20.0936L19.8026 18.7864L19.8027 18.7864L19.809 18.7782C20.1532 18.3285 21.0852 17.9634 22.0595 18.5085C23.634 19.3981 25.6334 20.7797 26.9449 22.0166L26.9581 22.0291L26.9721 22.0405C27.2665 22.2803 27.4303 22.5669 27.4819 22.8762C27.534 23.1893 27.4776 23.5668 27.2573 23.9899L27.2008 24.0984V24.1034C26.6405 25.0626 25.8649 26.0396 24.9905 26.6992C24.1345 27.345 23.2465 27.6448 22.3814 27.4313L22.359 27.3975L22.1802 27.3474C21.0878 27.0413 19.202 26.2056 17.1452 25.0934C15.0959 23.9852 12.9176 22.6247 11.2401 21.2895L11.2389 21.2886C5.34488 16.627 2.80558 10.7571 1.37313 7.4459C1.07521 6.75722 0.825165 6.17922 0.602776 5.74578C0.327793 4.83963 0.623324 3.90669 1.29786 3.01014C1.95588 2.13552 2.93188 1.35981 3.89419 0.79921H3.90536L4.01425 0.742247C4.43484 0.52222 4.81443 0.465211 5.13314 0.518876C5.44535 0.571448 5.73819 0.736442 5.98634 1.03295C6.15148 1.25526 6.34604 1.48399 6.5725 1.75023C7.24874 2.54523 8.20953 3.67475 9.52139 5.96696C10.0662 6.9412 9.70204 7.87299 9.25105 8.21939L9.25099 8.21931L9.24325 8.2255L7.93739 9.27032L7.93682 9.27078C7.47618 9.64045 7.29559 10.1532 7.2235 10.527C7.18662 10.7183 7.17508 10.888 7.17263 11.0106C7.17139 11.0723 7.17244 11.1233 7.17393 11.1603C7.17468 11.1789 7.17555 11.1941 7.1763 11.2056L7.17734 11.2199L7.17774 11.2249L7.17791 11.2269L7.17798 11.2277L7.17801 11.2281C7.17803 11.2283 7.17805 11.2285 7.67605 11.1838ZM7.67605 11.1838L7.17805 11.2285L7.18182 11.2706L7.19264 11.3116L7.67605 11.1838Z" stroke="currentColor"/>
</symbol><symbol id="type-switcher1" viewBox="0 0 22 13">
<path fill-rule="evenodd" clip-rule="evenodd" d="M13.237 0.390188C13.5668 0.616185 13.6924 0.829498 13.6924 1.16394C13.6924 1.53689 13.5049 1.81817 13.1472 1.98171C12.8061 2.13763 12.5122 2.13442 12.177 1.97107C11.4835 1.6331 11.4713 0.704457 12.1558 0.358288C12.4764 0.196157 12.9753 0.21089 13.237 0.390188ZM7.38182 5.24258V9.15012H7.89091H8.4V10.8797V12.6092H7.66818H6.93636V11.5843V10.5594H4.2H1.46364V11.5843V12.6092H0.731818H0V10.8829V9.15652L0.365909 9.1373L0.731818 9.11809L0.956264 8.66257C1.2138 8.13986 1.43545 7.31031 1.52734 6.5254C1.56234 6.22689 1.59091 4.9369 1.59091 3.65881V1.33504H4.48636H7.38182V5.24258ZM3.03533 4.65004C2.99899 6.68292 2.94057 7.19334 2.63435 8.15324C2.5452 8.43292 2.41646 8.77166 2.34844 8.90593L2.22466 9.15012H4.03964H5.85454V5.94722V2.74432H4.46199H3.06937L3.03533 4.65004ZM13.2993 3.14468C13.2989 3.18875 12.916 4.57958 12.4485 6.23548C11.9809 7.89138 11.6074 9.25658 11.6183 9.26926C11.6293 9.28195 12.1851 8.91304 12.8535 8.44951C13.5219 7.98599 14.1055 7.59255 14.1504 7.57519C14.1999 7.55603 14.3761 7.76147 14.5978 8.09681C14.799 8.40102 14.9544 8.65854 14.9432 8.66898C14.8051 8.79741 12.196 10.5365 12.0452 10.6005C11.7428 10.729 11.1764 10.7107 10.8891 10.5632C10.4339 10.3294 10.1196 9.82983 10.1186 9.33845C10.1182 9.21078 11.1578 5.24027 11.3565 4.61001C11.3991 4.4751 11.3905 4.47388 10.377 4.47388C9.81464 4.47388 9.35454 4.46665 9.35454 4.45787C9.35461 4.42296 9.80802 3.16742 9.8385 3.11771C9.85645 3.0885 10.6426 3.06461 11.5856 3.06461C12.9151 3.06461 13.2998 3.08261 13.2993 3.14468ZM21.6364 6.812V10.5594H20.9045H20.1727V9.18214V7.8049H19.5388H18.9049L18.0911 9.18093L17.2773 10.557L16.3955 10.5582C15.6762 10.5591 15.5198 10.5432 15.547 10.472C15.5653 10.4238 15.9866 9.75905 16.4832 8.99465C16.9798 8.23018 17.3758 7.59588 17.3634 7.58505C17.3511 7.57416 17.2058 7.50594 17.0407 7.43336C16.6249 7.25067 16.1352 6.76934 15.9281 6.33964C15.7776 6.02768 15.7545 5.9018 15.7557 5.40273C15.757 4.92056 15.7841 4.76721 15.9216 4.46588C16.1183 4.03464 16.4704 3.62672 16.8281 3.41577C17.3485 3.10874 17.6426 3.07338 19.7114 3.06884L21.6364 3.06461V6.812ZM18.0806 4.40912C17.6036 4.5243 17.3091 4.93023 17.3091 5.47236C17.3091 5.8346 17.461 6.12331 17.775 6.3577C17.9407 6.48146 18.038 6.49171 19.0477 6.49171H20.1409V5.43475V4.3778L19.2182 4.36748C18.7107 4.36185 18.1987 4.38061 18.0806 4.40912Z" fill="white"/>
</symbol><symbol id="type-switcher2" viewBox="0 0 25 13">
<path d="M14.4499 4.18247V8.1626C14.4345 8.28182 14.4449 8.40322 14.4792 8.51755C14.5134 8.63188 14.5707 8.73618 14.6473 8.82243C14.7235 8.90874 14.8168 8.97472 14.92 9.0155C15.0233 9.05623 15.1337 9.07062 15.2423 9.05757H16.5352V10.3775H15.1224C13.6944 10.3775 13.0817 9.55256 13.0817 8.1626V4.18247H11.7402V2.91208H13.0781L13.2585 0.919922H14.4381V2.91208H16.5239V4.18247H14.4499Z" fill="white"/>
<path d="M24.637 2.89551L21.6646 11.4085C21.5577 11.8405 21.3197 12.2193 20.9893 12.482C20.6589 12.7446 20.2568 12.8752 19.8497 12.8521H18.4667V11.5322H19.6694C19.8141 11.5482 19.9597 11.5105 20.0828 11.4254C20.2063 11.3402 20.3001 11.2123 20.3492 11.0621L20.5525 10.4887L17.6738 2.89551H19.1772L21.2625 8.76878L23.1675 2.89551H24.637Z" fill="white"/>
<path d="M8.93359 2.88672H10.2936V10.3521H8.93359V2.88672Z" fill="white"/>
<path d="M10.5645 0.940398C10.5645 1.45595 10.354 1.87664 9.61377 1.87664C8.8736 1.87664 8.66309 1.4642 8.66309 0.940398C8.66309 0.416593 8.9074 0 9.61377 0C10.3201 0 10.5645 0.412441 10.5645 0.940398Z" fill="white"/>
<path d="M6.26942 7.58525C5.9426 8.5215 5.48056 8.99167 4.48839 8.99167C2.84621 8.99167 2.1398 7.64704 2.1398 5.4404C2.1398 3.23381 2.89133 1.88928 4.48839 1.88928C5.48056 1.88928 5.93855 2.3594 6.26581 3.29155L7.62987 2.80076C7.08487 1.31594 6.12652 0.495117 4.51093 0.495117C2.03837 0.495117 0.636719 2.49964 0.636719 5.44455C0.636719 8.38942 1.97071 10.3939 4.51093 10.3939C5.1889 10.4371 5.86101 10.235 6.42449 9.81858C6.98796 9.40208 7.41124 8.79435 7.62987 8.08839L6.26942 7.58525Z" fill="white"/>
</symbol><symbol id="vodafone" viewBox="0 0 48 48">
  
  <path class="cls-1" d="M24,2.5A21.5,21.5,0,1,1,2.5,24,21.51,21.51,0,0,1,24,2.5Z" id="path6" style="stroke:#d40000"/>
  <path class="cls-1" d="M25.79,13.41a3.27,3.27,0,0,1,.31-1.21C27.19,9.66,31,5.91,33.87,4.91l0-.08c-13.47,0-20.6,8.35-20.6,19.17A10.75,10.75,0,1,0,25.79,13.41Z" id="path8" style="stroke:#d40000"/>
</symbol></svg>