<svg width="24" height="24" viewBox="0 0 24 24" fill="none" xmlns="http://www.w3.org/2000/svg">
<path fill-rule="evenodd" clip-rule="evenodd" d="M12.7257 0.1007C10.5779 0.311447 8.40823 1.26276 6.82964 2.6859L6.60792 2.88576L7.28959 4.43331C8.05375 6.16811 8.12386 6.37459 8.08067 6.76349C8.02744 7.24323 7.85248 7.52319 7.28096 8.04307C6.21991 9.00827 5.66425 9.64534 5.3622 10.2429C5.17944 10.6044 5.16176 10.788 5.26676 11.2331C5.68784 13.0177 8.26253 16.0743 10.7092 17.6944C11.9541 18.5186 12.9106 18.8668 13.4635 18.6969C13.9962 18.5334 14.9528 17.7369 15.8712 16.6924C16.2472 16.2648 16.3681 16.1594 16.6315 16.0299C16.9126 15.8915 16.9855 15.8759 17.344 15.8774L17.7435 15.8791L19.4786 16.6418L21.2137 17.4045L21.4209 17.1794C22.0206 16.5277 22.6863 15.4949 23.0945 14.5827C24.8262 10.7134 24.0313 6.2286 21.0765 3.19706C19.4503 1.52852 17.4597 0.507751 15.1687 0.167572C14.5336 0.0732659 13.3385 0.040533 12.7257 0.1007ZM4.17598 2.51984C3.90375 2.67356 3.79186 2.76205 3.80537 2.81289C3.85878 3.0143 5.87959 7.55185 5.91584 7.55185C5.99885 7.55185 6.79593 6.7845 6.82237 6.67917C6.85562 6.54674 5.10066 2.50718 4.95533 2.38164C4.7988 2.24639 4.59663 2.28222 4.17598 2.51984ZM2.42575 3.92834C1.71337 4.67013 1.06931 5.60325 0.539108 6.66177C-0.0913522 7.9204 -0.135293 8.44614 0.233492 10.3187C0.701741 12.6961 2.00177 15.1909 3.99548 17.5382C4.58753 18.2352 5.95866 19.5847 6.66288 20.1635C8.704 21.8412 10.8949 23.0348 12.8662 23.5431C14.3859 23.9349 15.5751 24.0356 16.2859 23.8327C16.976 23.6356 18.287 22.9163 19.1415 22.2659C19.691 21.8476 20.3578 21.238 20.3136 21.1943C20.2929 21.1738 19.1688 20.6712 17.8157 20.0775L15.3556 18.998L15.1192 19.1785C14.2241 19.8619 13.6152 20.072 12.8172 19.973C11.3017 19.7848 9.19771 18.4287 7.14398 16.3164C5.39563 14.5182 4.23722 12.6696 3.99937 11.2981C3.84921 10.4323 4.02291 9.84554 4.7028 8.92203C4.82093 8.76151 4.91763 8.60469 4.91763 8.57355C4.91763 8.51015 2.81644 3.70352 2.76401 3.64697C2.74563 3.62713 2.5934 3.75375 2.42575 3.92834ZM18.8913 4.40025C19.0653 4.52762 19.1824 4.77897 19.158 4.9726C19.1464 5.06461 18.599 6.17111 17.9122 7.49112C17.2383 8.78599 16.6745 9.87809 16.6592 9.91795C16.6347 9.98182 16.7432 9.9904 17.5743 9.9904H18.5173L18.518 9.15801C18.5187 8.23956 18.5374 8.16026 18.7945 7.98703C19.0915 7.78688 19.4863 7.87355 19.6715 8.17959C19.7475 8.30503 19.7622 8.443 19.7755 9.15801L19.791 9.9904H20.2608C20.7999 9.9904 21.0082 10.061 21.1487 10.2915C21.3294 10.5878 21.213 11.029 20.9133 11.1839C20.8128 11.2359 20.6335 11.2566 20.2824 11.2566H19.7918L19.7759 11.9739C19.7583 12.7671 19.7273 12.8661 19.4409 13.0407C19.1651 13.2088 18.7795 13.1164 18.6123 12.8421C18.5283 12.7044 18.5176 12.6063 18.5174 11.9717L18.5173 11.2566H16.9674C15.255 11.2566 15.2221 11.2515 15.0451 10.9612C14.8498 10.6408 14.84 10.6644 16.4376 7.58026C17.2541 6.00421 17.9744 4.64392 18.0382 4.55744C18.2505 4.26983 18.6201 4.20169 18.8913 4.40025ZM12.8318 4.43847C13.2815 4.55561 13.5993 4.74113 13.945 5.08844C14.5461 5.69221 14.7949 6.46711 14.673 7.3561C14.5617 8.16791 14.2278 8.84869 13.6673 9.40618C13.2245 9.84662 13.079 9.93535 11.8184 10.5333C11.0342 10.9052 10.7314 11.0712 10.7127 11.1393C10.6986 11.1909 10.6867 11.3755 10.6864 11.5497L10.6857 11.8662L12.3623 11.8663C13.8657 11.8664 14.0554 11.8748 14.1996 11.9484C14.4331 12.0674 14.5468 12.2461 14.5468 12.4938C14.5468 12.7375 14.4479 12.9111 14.2355 13.0407C14.0929 13.1276 13.9846 13.1321 11.9981 13.1322C10.0657 13.1324 9.89866 13.126 9.75075 13.0467C9.46267 12.8922 9.41948 12.741 9.42033 11.8904C9.42075 11.4324 9.44537 11.036 9.48335 10.8745C9.56092 10.5451 9.74967 10.2169 9.94818 10.0664C10.0315 10.0033 10.5999 9.71494 11.2114 9.42569C12.4237 8.85225 12.7354 8.64441 13.0372 8.20838C13.5425 7.47822 13.5645 6.49182 13.0866 5.98826C12.9106 5.80274 12.6778 5.69273 12.3264 5.629C11.4166 5.46402 10.749 5.98329 10.6986 6.89531C10.6749 7.32201 10.6223 7.47109 10.4416 7.62313C10.3375 7.71073 10.2493 7.73938 10.0842 7.73924C9.64617 7.73891 9.41883 7.47048 9.42037 6.95543C9.42361 5.87778 10.1032 4.8578 11.056 4.50056C11.5567 4.31279 12.2554 4.28836 12.8318 4.43847ZM17.0967 17.224C17.0347 17.2821 16.8412 17.4928 16.6668 17.6924L16.3496 18.0552L16.5541 18.1441C16.6666 18.193 17.7479 18.6676 18.9571 19.1989C20.1662 19.7301 21.1721 20.1545 21.1924 20.1419C21.2128 20.1294 21.3261 19.9514 21.4443 19.7465C21.6753 19.3459 21.709 19.1574 21.5772 19.0012C21.4818 18.8881 17.4774 17.1185 17.3168 17.1185C17.2577 17.1185 17.1587 17.1659 17.0967 17.224Z" fill="#1397D6"/>
</svg>
